<svg width="38" height="38" viewBox="0 0 38 38" fill="none" xmlns="http://www.w3.org/2000/svg">
<circle cx="19.3357" cy="19" r="18" stroke="#CC0830"/>
<path d="M23.7414 21.9845C23.8731 21.8649 24.0047 21.7213 24.1603 21.6136C24.8184 21.1229 25.3809 20.5485 25.7997 19.8425C26.5057 18.6339 26.41 17.3774 25.5125 16.3004C24.8065 15.4627 23.909 14.8883 22.9397 14.3977C20.9173 13.3805 18.7513 12.9736 16.5135 12.9497C15.6519 12.9377 14.7903 12.9976 13.9407 13.0215C13.3424 13.919 13.0552 14.8763 12.9116 15.8815C12.6363 17.8321 13.0791 19.663 13.9886 21.3862C14.0604 21.5178 14.1561 21.6375 14.192 21.7811C14.2159 21.8768 14.192 22.0324 14.1322 22.0803C14.0604 22.1281 13.8928 22.1281 13.821 22.0803C13.5697 21.8649 13.3304 21.6375 13.115 21.3862C11.2482 19.1245 10.6738 16.5636 11.3798 13.7275C11.3918 13.6797 11.4038 13.6318 11.4277 13.5121C11.0448 13.6079 10.6977 13.6797 10.3627 13.7754C10.0276 13.8711 9.7045 13.9908 9.36944 14.0865C9.21387 14.1344 9.0583 14.1344 8.9147 14.1583C8.72324 13.8352 8.9147 13.7156 9.11814 13.6198C9.72844 13.3326 10.3507 13.0454 10.973 12.7822C11.2721 12.6505 11.5833 12.5548 11.8944 12.4351C12.4927 11.2744 13.3184 10.3529 14.4074 9.67082C15.2929 9.12035 16.2622 8.78528 17.2794 8.62972C19.1701 8.33055 21.013 8.53398 22.7362 9.39558C23.6337 9.85032 24.4116 10.4486 25.0458 11.2385C25.2133 11.4419 25.2612 11.6094 24.9261 11.777C23.0833 10.2213 20.9173 9.73065 18.5479 10.1136C17.2674 10.317 15.8554 10.9632 15.1972 11.6932C15.4365 11.6812 15.628 11.6573 15.8195 11.6453C18.871 11.4299 21.8267 11.8248 24.615 13.1412C25.4287 13.5241 26.1707 14.0147 26.8408 14.625C27.5109 15.2473 28.0255 15.9653 28.2409 16.8628C28.5161 18.0236 28.205 19.0647 27.499 19.9861C26.6733 21.0751 25.5604 21.7691 24.3039 22.2478C24.0645 22.2957 23.8731 22.3076 23.7414 21.9845Z" fill="#CC0830"/>
<path d="M21.5515 29.2243C20.9172 29.2602 20.271 29.2961 19.6368 29.32C19.5052 29.332 19.3735 29.32 19.206 29.32C19.206 25.8497 19.206 22.4033 19.206 18.897C19.9719 18.897 20.7617 18.897 21.5515 18.897C21.5515 21.2664 21.5634 23.6358 21.5634 25.9933C21.5634 27.0703 21.5634 28.1473 21.5515 29.2243Z" fill="#CC0830"/>
<path d="M17.8059 29.2004C17.3392 29.2483 16.9084 29.2962 16.4776 29.344C16.3579 28.9252 16.3101 23.0735 16.4058 21.7093C16.8605 21.7093 17.3153 21.7093 17.8059 21.7093C17.8059 24.1984 17.8059 26.6755 17.8059 29.2004Z" fill="#CC0830"/>
</svg>
