<svg width="38" height="38" viewBox="0 0 38 38" fill="none" xmlns="http://www.w3.org/2000/svg">
<circle cx="19.3357" cy="19" r="18" stroke="#D4DEEB"/>
<path d="M11.8361 29.52C11.2709 29.52 10.7924 29.3209 10.4008 28.9225C10.0092 28.5241 9.81335 28.0374 9.81335 27.4624V12.2275C9.81335 11.6525 10.0092 11.1659 10.4008 10.7675C10.7924 10.3691 11.2709 10.1699 11.8361 10.1699H13.3855V7.76208H15.1069V10.1699H23.5852V7.76208H25.2636V10.1699H26.8129C27.3782 10.1699 27.8566 10.3691 28.2482 10.7675C28.6399 11.1659 28.8357 11.6525 28.8357 12.2275V27.4624C28.8357 28.0374 28.6399 28.5241 28.2482 28.9225C27.8566 29.3209 27.3782 29.52 26.8129 29.52H11.8361ZM11.8361 27.8127H26.8129C26.899 27.8127 26.9779 27.7762 27.0497 27.7033C27.1214 27.6303 27.1573 27.55 27.1573 27.4624V16.7805H11.4918V27.4624C11.4918 27.55 11.5276 27.6303 11.5994 27.7033C11.6711 27.7762 11.75 27.8127 11.8361 27.8127ZM11.4918 15.0732H27.1573V12.2275C27.1573 12.1399 27.1214 12.0597 27.0497 11.9867C26.9779 11.9137 26.899 11.8772 26.8129 11.8772H11.8361C11.75 11.8772 11.6711 11.9137 11.5994 11.9867C11.5276 12.0597 11.4918 12.1399 11.4918 12.2275V15.0732ZM19.3245 21.0708C19.0505 21.0708 18.8171 20.9726 18.6241 20.7764C18.4312 20.5801 18.3347 20.3426 18.3347 20.0639C18.3347 19.7852 18.4312 19.5477 18.6241 19.3514C18.8171 19.1551 19.0505 19.057 19.3245 19.057C19.5985 19.057 19.832 19.1551 20.0249 19.3514C20.2179 19.5477 20.3144 19.7852 20.3144 20.0639C20.3144 20.3426 20.2179 20.5801 20.0249 20.7764C19.832 20.9726 19.5985 21.0708 19.3245 21.0708ZM14.8487 21.0708C14.5747 21.0708 14.3412 20.9726 14.1482 20.7764C13.9553 20.5801 13.8588 20.3426 13.8588 20.0639C13.8588 19.7852 13.9553 19.5477 14.1482 19.3514C14.3412 19.1551 14.5747 19.057 14.8487 19.057C15.1227 19.057 15.3561 19.1551 15.5491 19.3514C15.742 19.5477 15.8385 19.7852 15.8385 20.0639C15.8385 20.3426 15.742 20.5801 15.5491 20.7764C15.3561 20.9726 15.1227 21.0708 14.8487 21.0708ZM23.8004 21.0708C23.5264 21.0708 23.2929 20.9726 23.1 20.7764C22.907 20.5801 22.8105 20.3426 22.8105 20.0639C22.8105 19.7852 22.907 19.5477 23.1 19.3514C23.2929 19.1551 23.5264 19.057 23.8004 19.057C24.0744 19.057 24.3078 19.1551 24.5008 19.3514C24.6937 19.5477 24.7902 19.7852 24.7902 20.0639C24.7902 20.3426 24.6937 20.5801 24.5008 20.7764C24.3078 20.9726 24.0744 21.0708 23.8004 21.0708ZM19.3245 25.5362C19.0505 25.5362 18.8171 25.4381 18.6241 25.2418C18.4312 25.0455 18.3347 24.808 18.3347 24.5293C18.3347 24.2506 18.4312 24.0131 18.6241 23.8168C18.8171 23.6205 19.0505 23.5224 19.3245 23.5224C19.5985 23.5224 19.832 23.6205 20.0249 23.8168C20.2179 24.0131 20.3144 24.2506 20.3144 24.5293C20.3144 24.808 20.2179 25.0455 20.0249 25.2418C19.832 25.4381 19.5985 25.5362 19.3245 25.5362ZM14.8487 25.5362C14.5747 25.5362 14.3412 25.4381 14.1482 25.2418C13.9553 25.0455 13.8588 24.808 13.8588 24.5293C13.8588 24.2506 13.9553 24.0131 14.1482 23.8168C14.3412 23.6205 14.5747 23.5224 14.8487 23.5224C15.1227 23.5224 15.3561 23.6205 15.5491 23.8168C15.742 24.0131 15.8385 24.2506 15.8385 24.5293C15.8385 24.808 15.742 25.0455 15.5491 25.2418C15.3561 25.4381 15.1227 25.5362 14.8487 25.5362ZM23.8004 25.5362C23.5264 25.5362 23.2929 25.4381 23.1 25.2418C22.907 25.0455 22.8105 24.808 22.8105 24.5293C22.8105 24.2506 22.907 24.0131 23.1 23.8168C23.2929 23.6205 23.5264 23.5224 23.8004 23.5224C24.0744 23.5224 24.3078 23.6205 24.5008 23.8168C24.6937 24.0131 24.7902 24.2506 24.7902 24.5293C24.7902 24.808 24.6937 25.0455 24.5008 25.2418C24.3078 25.4381 24.0744 25.5362 23.8004 25.5362Z" fill="#C1D0E3"/>
</svg>
