<svg width="10" height="7" viewBox="0 0 10 7" fill="none" xmlns="http://www.w3.org/2000/svg">
<path d="M0.794204 3.40601C0.794204 2.48867 0.970204 1.76601 1.3222 1.23801C1.67954 0.710005 2.25287 0.446005 3.0422 0.446005C3.83154 0.446005 4.4022 0.710005 4.7542 1.23801C5.11154 1.76601 5.2902 2.48867 5.2902 3.40601C5.2902 4.33401 5.11154 5.06201 4.7542 5.59001C4.4022 6.11801 3.83154 6.38201 3.0422 6.38201C2.25287 6.38201 1.67954 6.11801 1.3222 5.59001C0.970204 5.06201 0.794204 4.33401 0.794204 3.40601ZM3.9462 3.40601C3.9462 2.86734 3.88754 2.45401 3.7702 2.16601C3.65287 1.87267 3.4102 1.72601 3.0422 1.72601C2.6742 1.72601 2.43154 1.87267 2.3142 2.16601C2.19687 2.45401 2.1382 2.86734 2.1382 3.40601C2.1382 3.76867 2.15954 4.07001 2.2022 4.31001C2.24487 4.54467 2.3302 4.73667 2.4582 4.88601C2.59154 5.03001 2.7862 5.10201 3.0422 5.10201C3.2982 5.10201 3.4902 5.03001 3.6182 4.88601C3.75154 4.73667 3.83954 4.54467 3.8822 4.31001C3.92487 4.07001 3.9462 3.76867 3.9462 3.40601ZM5.96495 5.31001C6.14629 5.16601 6.22895 5.09934 6.21295 5.11001C6.73562 4.67801 7.14629 4.32334 7.44495 4.04601C7.74895 3.76867 8.00495 3.47801 8.21295 3.17401C8.42095 2.87001 8.52495 2.57401 8.52495 2.28601C8.52495 2.06734 8.47429 1.89667 8.37295 1.77401C8.27162 1.65134 8.11962 1.59001 7.91695 1.59001C7.71429 1.59001 7.55429 1.66734 7.43695 1.82201C7.32495 1.97134 7.26895 2.18467 7.26895 2.46201H5.94895C5.95962 2.00867 6.05562 1.63001 6.23695 1.32601C6.42362 1.02201 6.66629 0.798006 6.96495 0.654006C7.26895 0.510005 7.60495 0.438005 7.97295 0.438005C8.60762 0.438005 9.08495 0.600672 9.40495 0.926005C9.73029 1.25134 9.89295 1.67534 9.89295 2.19801C9.89295 2.76867 9.69829 3.29934 9.30895 3.79001C8.91962 4.27534 8.42362 4.75001 7.82095 5.21401H9.98095V6.32601H5.96495V5.31001Z" fill="white"/>
</svg>

