<svg width="9" height="7" viewBox="0 0 9 7" fill="none" xmlns="http://www.w3.org/2000/svg">
<path d="M0.938412 1.83801V0.566006H3.15441V6.40601H1.73041V1.83801H0.938412ZM4.09022 3.40601C4.09022 2.48867 4.26622 1.76601 4.61822 1.23801C4.97556 0.710005 5.54889 0.446005 6.33822 0.446005C7.12756 0.446005 7.69822 0.710005 8.05022 1.23801C8.40756 1.76601 8.58623 2.48867 8.58623 3.40601C8.58623 4.33401 8.40756 5.06201 8.05022 5.59001C7.69822 6.11801 7.12756 6.38201 6.33822 6.38201C5.54889 6.38201 4.97556 6.11801 4.61822 5.59001C4.26622 5.06201 4.09022 4.33401 4.09022 3.40601ZM7.24222 3.40601C7.24222 2.86734 7.18356 2.45401 7.06622 2.16601C6.94889 1.87267 6.70622 1.72601 6.33822 1.72601C5.97022 1.72601 5.72756 1.87267 5.61022 2.16601C5.49289 2.45401 5.43422 2.86734 5.43422 3.40601C5.43422 3.76867 5.45556 4.07001 5.49822 4.31001C5.54089 4.54467 5.62622 4.73667 5.75422 4.88601C5.88756 5.03001 6.08222 5.10201 6.33822 5.10201C6.59422 5.10201 6.78622 5.03001 6.91422 4.88601C7.04756 4.73667 7.13556 4.54467 7.17822 4.31001C7.22089 4.07001 7.24222 3.76867 7.24222 3.40601Z" fill="white"/>
</svg>
