<svg width="38" height="38" viewBox="0 0 38 38" fill="none" xmlns="http://www.w3.org/2000/svg">
<circle cx="19.3357" cy="19" r="18" stroke="#820AD1"/>
<g clip-path="url(#clip0_17_2036)">
<path d="M11.9682 13.7412C9.6864 13.7412 7.83569 15.5951 7.83569 17.8809V25.2755H11.0061V16.6309C11.0061 15.5091 11.4512 14.4909 12.175 13.7465C12.1067 13.743 12.0383 13.7412 11.9682 13.7412Z" fill="#820AD1"/>
<path d="M15.1404 12.4912C13.9785 12.4912 12.9269 12.9722 12.1768 13.7465C14.3623 13.8553 16.1026 15.6653 16.1026 17.8809V25.2755H19.2729V16.6309C19.2729 14.3451 17.4222 12.4912 15.1404 12.4912Z" fill="#820AD1"/>
<path d="M27.6432 24.417C29.925 24.417 31.7757 22.5631 31.7757 20.2773V12.8827H28.6054V21.5273C28.6054 22.6491 28.1602 23.6673 27.4364 24.4117C27.5048 24.4152 27.5731 24.417 27.6432 24.417Z" fill="#820AD1"/>
<path d="M24.471 25.667C25.633 25.667 26.6845 25.1859 27.4346 24.4117C25.2492 24.3029 23.5089 22.4928 23.5089 20.2773V12.8827H20.3385V21.5273C20.3385 23.8131 22.1892 25.667 24.471 25.667Z" fill="#820AD1"/>
</g>
<defs>
<clipPath id="clip0_17_2036">
<rect width="23.94" height="13.167" fill="white" transform="translate(7.83569 12.5)"/>
</clipPath>
</defs>
</svg>
