<svg width="11" height="11" viewBox="0 0 11 11" fill="none" xmlns="http://www.w3.org/2000/svg">
<path d="M1.75198 10.4831C1.47272 10.4831 1.23635 10.3886 1.04285 10.1996C0.849357 10.0106 0.752609 9.77967 0.752609 9.50688V2.27866C0.752609 2.00587 0.849357 1.77496 1.04285 1.58595C1.23635 1.39693 1.47272 1.30243 1.75198 1.30243H2.51746V0.160034H3.36796V1.30243H7.55679V0.160034H8.38604V1.30243H9.15152C9.43077 1.30243 9.66715 1.39693 9.86065 1.58595C10.0541 1.77496 10.1509 2.00587 10.1509 2.27866V9.50688C10.1509 9.77967 10.0541 10.0106 9.86065 10.1996C9.66715 10.3886 9.43077 10.4831 9.15152 10.4831H1.75198ZM1.75198 9.67306H9.15152C9.19405 9.67306 9.23304 9.65575 9.26848 9.62114C9.30392 9.58651 9.32164 9.54842 9.32164 9.50688V4.43883H1.58186V9.50688C1.58186 9.54842 1.59958 9.58651 1.63501 9.62114C1.67046 9.65575 1.70945 9.67306 1.75198 9.67306ZM1.58186 3.62878H9.32164V2.27866C9.32164 2.23711 9.30392 2.19903 9.26848 2.1644C9.23304 2.12978 9.19405 2.11248 9.15152 2.11248H1.75198C1.70945 2.11248 1.67046 2.12978 1.63501 2.1644C1.59958 2.19903 1.58186 2.23711 1.58186 2.27866V3.62878ZM5.45175 6.47435C5.31638 6.47435 5.20103 6.42779 5.1057 6.33467C5.01037 6.24155 4.9627 6.12887 4.9627 5.99663C4.9627 5.86439 5.01037 5.75171 5.1057 5.65859C5.20103 5.56547 5.31638 5.51891 5.45175 5.51891C5.58712 5.51891 5.70247 5.56547 5.7978 5.65859C5.89313 5.75171 5.94079 5.86439 5.94079 5.99663C5.94079 6.12887 5.89313 6.24155 5.7978 6.33467C5.70247 6.42779 5.58712 6.47435 5.45175 6.47435ZM3.24038 6.47435C3.10501 6.47435 2.98966 6.42779 2.89433 6.33467C2.799 6.24155 2.75134 6.12887 2.75134 5.99663C2.75134 5.86439 2.799 5.75171 2.89433 5.65859C2.98966 5.56547 3.10501 5.51891 3.24038 5.51891C3.37575 5.51891 3.49111 5.56547 3.58643 5.65859C3.68176 5.75171 3.72943 5.86439 3.72943 5.99663C3.72943 6.12887 3.68176 6.24155 3.58643 6.33467C3.49111 6.42779 3.37575 6.47435 3.24038 6.47435ZM7.66311 6.47435C7.52774 6.47435 7.41239 6.42779 7.31706 6.33467C7.22173 6.24155 7.17407 6.12887 7.17407 5.99663C7.17407 5.86439 7.22173 5.75171 7.31706 5.65859C7.41239 5.56547 7.52774 5.51891 7.66311 5.51891C7.79849 5.51891 7.91384 5.56547 8.00917 5.65859C8.10449 5.75171 8.15216 5.86439 8.15216 5.99663C8.15216 6.12887 8.10449 6.24155 8.00917 6.33467C7.91384 6.42779 7.79849 6.47435 7.66311 6.47435ZM5.45175 8.59298C5.31638 8.59298 5.20103 8.54642 5.1057 8.4533C5.01037 8.36018 4.9627 8.24749 4.9627 8.11526C4.9627 7.98302 5.01037 7.87034 5.1057 7.77722C5.20103 7.68409 5.31638 7.63752 5.45175 7.63752C5.58712 7.63752 5.70247 7.68409 5.7978 7.77722C5.89313 7.87034 5.94079 7.98302 5.94079 8.11526C5.94079 8.24749 5.89313 8.36018 5.7978 8.4533C5.70247 8.54642 5.58712 8.59298 5.45175 8.59298ZM3.24038 8.59298C3.10501 8.59298 2.98966 8.54642 2.89433 8.4533C2.799 8.36018 2.75134 8.24749 2.75134 8.11526C2.75134 7.98302 2.799 7.87034 2.89433 7.77722C2.98966 7.68409 3.10501 7.63752 3.24038 7.63752C3.37575 7.63752 3.49111 7.68409 3.58643 7.77722C3.68176 7.87034 3.72943 7.98302 3.72943 8.11526C3.72943 8.24749 3.68176 8.36018 3.58643 8.4533C3.49111 8.54642 3.37575 8.59298 3.24038 8.59298ZM7.66311 8.59298C7.52774 8.59298 7.41239 8.54642 7.31706 8.4533C7.22173 8.36018 7.17407 8.24749 7.17407 8.11526C7.17407 7.98302 7.22173 7.87034 7.31706 7.77722C7.41239 7.68409 7.52774 7.63752 7.66311 7.63752C7.79849 7.63752 7.91384 7.68409 8.00917 7.77722C8.10449 7.87034 8.15216 7.98302 8.15216 8.11526C8.15216 8.24749 8.10449 8.36018 8.00917 8.4533C7.91384 8.54642 7.79849 8.59298 7.66311 8.59298Z" fill="#6D6F75"/>
</svg>
