<svg width="56" height="55" viewBox="0 0 56 55" fill="none" xmlns="http://www.w3.org/2000/svg">
<path d="M28.0935 52.4999C14.2746 52.4999 3.09351 41.3022 3.09351 27.4999C3.09351 13.6811 14.2912 2.5 28.0935 2.5C41.9123 2.5 53.0934 13.6977 53.0934 27.4999C53.11 41.3188 41.9123 52.4999 28.0935 52.4999Z" fill="#B5E2DC"/>
<mask id="mask0_17_2586" style="mask-type:alpha" maskUnits="userSpaceOnUse" x="3" y="2" width="51" height="51">
<path d="M28.0935 52.4998C14.2747 52.4998 3.09351 41.3021 3.09351 27.4999C3.09351 13.6811 14.2912 2.5 28.0935 2.5C41.9123 2.5 53.0935 13.6977 53.0935 27.4999C53.1101 41.3187 41.9123 52.4998 28.0935 52.4998Z" fill="#F7C0B5"/>
</mask>
<g mask="url(#mask0_17_2586)">
<path d="M42.1267 48.5512C42.01 48.6346 41.8767 48.7179 41.76 48.8012C41.6267 48.8846 41.51 48.9679 41.3767 49.0346C41.26 49.1012 41.16 49.1679 41.0433 49.2346C41.0267 49.2512 41.01 49.2512 40.9933 49.2679C40.61 49.5012 40.21 49.7179 39.81 49.9179C39.6933 49.9846 39.56 50.0512 39.4433 50.1012C39.4433 50.1012 39.4267 50.1179 39.41 50.1179C39.2767 50.1846 39.1433 50.2512 39.01 50.3179C38.7433 50.4512 38.46 50.5679 38.1933 50.6846C38.06 50.7512 37.91 50.8012 37.7767 50.8512C37.6433 50.9012 37.4933 50.9679 37.36 51.0179C37.2267 51.0679 37.0767 51.1346 36.9433 51.1846C36.9433 51.1846 36.9433 51.1846 36.9267 51.1846C36.7933 51.2346 36.6433 51.2846 36.51 51.3346C36.21 51.4346 35.8933 51.5345 35.5933 51.6346C35.4933 51.6679 35.3767 51.7012 35.2767 51.7346C34.96 51.8345 34.6433 51.9179 34.3267 51.9846C34.21 52.0179 34.0933 52.0345 33.96 52.0679C33.66 52.1346 33.3433 52.2012 33.0433 52.2679C32.9767 52.2845 32.9267 52.2845 32.86 52.3012C32.76 52.3179 32.6433 52.3345 32.5433 52.3512C32.3933 52.3679 32.26 52.4012 32.11 52.4179C32.0433 52.4346 31.9767 52.4345 31.91 52.4512C31.8267 52.4679 31.7267 52.4845 31.6267 52.4845C31.36 52.5179 31.0767 52.5512 30.81 52.5845C30.7267 52.6012 30.6267 52.6012 30.5433 52.6179H30.5267C30.41 52.6345 30.2933 52.6345 30.1767 52.6512C30.06 52.6679 29.9433 52.6679 29.8267 52.6679C29.76 52.6679 29.6767 52.6845 29.61 52.6845C29.4767 52.6845 29.36 52.7012 29.2434 52.7012C29.0767 52.7012 28.9267 52.7179 28.76 52.7179C28.5934 52.7179 28.4434 52.7179 28.2767 52.7179C28.16 52.7179 28.0434 52.7179 27.9267 52.7179C20.91 52.6179 14.5767 49.6346 10.0767 44.9012C10.0767 44.9012 10.0767 44.8846 10.0601 44.8846C10.5767 43.8679 12.4934 42.0346 14.4934 40.5179C17.0267 38.6012 20.61 37.4179 20.61 37.4179C20.61 37.4179 22.96 37.0346 31.6767 38.8512C38.3267 40.2512 41.16 45.9346 42.1267 48.5512Z" fill="#AD827B"/>
<path d="M33.5267 43.4679C33.1767 45.1846 30.91 46.2013 27.0934 44.6679C22.4101 42.768 20.6101 37.418 20.6101 37.418C20.3601 33.5846 19.7767 30.3013 19.7767 30.3013C25.1934 29.8346 31.5934 36.168 31.5934 36.168L32.3267 39.3013C32.3934 39.568 32.5267 39.8013 32.7267 39.968C33.0767 40.568 33.76 42.368 33.5267 43.4679Z" fill="#AD827B"/>
<path d="M32.7267 39.9846C29.5434 39.8179 27.1934 39.3513 24.6767 34.8346C26.81 36.7179 29.3267 37.4346 31.9767 37.7679L32.3267 39.3012C32.3933 39.5846 32.5267 39.8179 32.7267 39.9846Z" fill="#8E5650"/>
<path d="M39.31 19.9013C39.61 21.3013 39.76 22.4346 38.9433 26.1679C38.1267 29.9013 39.6933 33.6346 35.76 37.0513C33.11 39.3513 28.4767 39.7846 24.7767 37.2679C23.5267 36.4179 22.3767 35.2346 21.4434 33.6846C20.71 32.4679 19.86 31.3179 18.91 30.2679C17.5934 28.8346 16.0101 25.9513 16.7934 20.8513C18.0601 12.5513 26.2767 11.6013 31.1267 12.518C35.9767 13.4346 38.4933 16.2013 39.31 19.9013Z" fill="#AD827B"/>
<path d="M23.36 26.418C23.36 26.418 22.8434 23.918 20.41 24.218C18.31 24.4847 17.5767 29.518 22.3434 30.918" fill="#AD827B"/>
<path d="M22.1934 28.6347C22.1934 28.6347 21.5934 28.2513 21.6601 27.5847C21.7601 26.8013 21.6601 26.318 21.2934 26.168C20.3767 25.7847 20.1934 26.8513 20.2267 26.9847" stroke="#423232" stroke-width="0.518406" stroke-miterlimit="10" stroke-linecap="round" stroke-linejoin="round"/>
<path d="M34.91 30.2513C34.91 30.2513 35.5434 30.2846 36.1434 29.568C36.4767 29.168 36.76 28.668 36.5767 28.518C36.3934 28.3513 33.3767 28.818 33.1767 29.218C32.9767 29.618 34.1434 30.2513 34.91 30.2513Z" fill="#8E605C"/>
<path d="M35.41 24.6513C35.41 24.6513 35.4433 26.2346 36.46 28.0013C36.91 28.7846 36.2267 30.068 34.7433 30.2846" stroke="#423232" stroke-width="0.518406" stroke-miterlimit="10" stroke-linecap="round" stroke-linejoin="round"/>
<path d="M22.1851 38.9521C22.1851 38.9521 21.8518 36.8854 21.2851 37.0021C18.6518 37.6021 10.9685 39.8354 8.28515 45.6354C5.75183 51.152 5.51849 58.8854 5.51849 58.8854H47.6684C47.6684 58.8854 46.9017 47.1354 42.6018 43.5354C40.0518 41.3854 37.7518 40.0687 35.8684 39.2687C33.3684 38.2021 30.8518 40.4354 30.1351 40.3854C28.8518 40.3187 22.1851 38.9521 22.1851 38.9521Z" fill="#544D4D"/>
<path d="M13.7684 58.8854L13.0184 52.7021" stroke="white" stroke-width="0.518406" stroke-miterlimit="10" stroke-linecap="round" stroke-linejoin="round"/>
<path d="M42.8684 50.6021C42.8684 50.6021 42.3684 51.8188 42.5184 53.0354C42.6684 54.2521 43.1017 56.0354 42.485 58.8854" stroke="white" stroke-width="0.518406" stroke-miterlimit="10" stroke-linecap="round" stroke-linejoin="round"/>
<path d="M20.2684 35.3187C20.2684 35.3187 19.0684 35.7521 18.8518 35.9854C18.6351 36.2187 18.5351 36.3687 18.5351 36.3687C18.5351 36.3687 17.9351 37.0354 17.6018 38.6521C17.4518 39.3354 17.8018 40.4521 17.5351 41.3354C16.7684 43.7854 20.4018 47.552 26.4018 49.7687C30.9517 51.452 35.9684 49.9187 36.6684 46.752C37.3351 43.702 36.9351 42.3187 36.6184 41.3354C35.9851 39.4354 35.7851 38.9021 34.9351 38.1687C34.4017 37.7021 34.0351 38.6687 32.0351 39.2187C31.4184 39.3854 30.6684 39.5187 29.7018 39.5521C23.9518 39.7687 21.5184 36.5021 20.6518 35.5687C20.4351 35.3854 20.3351 35.2854 20.2684 35.3187Z" fill="white"/>
<path d="M31.9851 39.2021C31.3684 39.3687 30.6184 39.5021 29.6517 39.5354C23.9017 39.7521 21.4684 36.4854 20.6017 35.5521" stroke="#CCCCCC" stroke-width="0.518406" stroke-miterlimit="10" stroke-linecap="round" stroke-linejoin="round"/>
<path d="M35.0351 37.5687C36.5517 38.8354 39.185 42.152 38.5517 49.5687C38.2351 53.2354 40.0184 54.752 39.6184 55.3354C39.5517 55.4354 39.4684 55.4854 39.4017 55.502C39.1184 55.5687 38.8517 55.702 38.7184 55.9687C38.6684 56.0854 38.585 56.1687 38.4684 56.2354C38.3684 56.302 38.2517 56.302 38.1517 56.2854C37.8017 56.202 37.4184 56.402 37.2017 56.702C37.1184 56.8187 37.0184 56.902 36.8684 56.9354C36.7684 56.9687 36.6684 56.952 36.6017 56.9354C36.3184 56.852 36.0017 56.9354 35.7517 57.1353C35.6851 57.1854 35.6184 57.2187 35.5351 57.2187C35.3851 57.2187 35.2684 57.152 35.1684 57.052C34.9351 56.8354 34.6017 56.752 34.2684 56.8687C34.2351 56.8854 34.2184 56.8854 34.1851 56.8854C33.9517 56.9187 33.7684 56.7354 33.6351 56.4187C33.5017 56.1187 33.1851 55.9854 32.8517 56.0187C32.7851 56.0187 32.7184 56.0187 32.6351 56.002C31.9851 55.852 31.1517 54.952 31.1351 53.852C31.1184 52.7687 31.3684 50.8854 31.7851 50.002C33.0684 47.2854 33.5351 45.3354 33.6017 43.8687C33.7351 41.1854 32.0351 38.7854 32.2017 38.7354C33.9017 38.3854 35.0351 37.5687 35.0351 37.5687Z" fill="white"/>
<path d="M31.7684 50.002C33.0518 47.2854 33.5184 45.3354 33.5851 43.8687C33.6851 41.802 32.6851 39.8854 32.3184 39.1021" stroke="#CCCCCC" stroke-width="0.518406" stroke-miterlimit="10" stroke-linecap="round" stroke-linejoin="round"/>
<path d="M31.1184 53.852C31.1017 52.7687 31.3517 50.8854 31.7684 50.002C33.0517 47.2854 33.5184 45.3354 33.5851 43.8687" stroke="#CCCCCC" stroke-width="0.518406" stroke-miterlimit="10" stroke-linecap="round" stroke-linejoin="round"/>
<path d="M32.6018 48.0355C32.6018 48.0355 27.5351 48.5355 24.2018 46.0188" stroke="#CCCCCC" stroke-width="0.518406" stroke-miterlimit="10" stroke-linecap="round" stroke-linejoin="round"/>
<path d="M33.9684 39.2521C34.4351 39.9355 34.9684 40.9355 35.1018 42.1688" stroke="#CCCCCC" stroke-width="0.518406" stroke-miterlimit="10" stroke-linecap="round" stroke-linejoin="round"/>
<path d="M36.0851 56.9354C36.0851 56.9354 35.2351 55.1354 36.0851 51.2188C36.9851 47.0521 36.5684 45.0021 36.5684 45.0021" stroke="#CCCCCC" stroke-width="0.518406" stroke-miterlimit="10" stroke-linecap="round" stroke-linejoin="round"/>
<path d="M17.5685 39.4855C17.5685 39.4855 18.6851 41.7855 20.0351 42.8521" stroke="#CCCCCC" stroke-width="0.518406" stroke-miterlimit="10" stroke-linecap="round" stroke-linejoin="round"/>
<path d="M33.4517 45.0021C33.4517 45.0021 30.2851 45.2188 28.0518 44.3521" stroke="#CCCCCC" stroke-width="0.518406" stroke-miterlimit="10" stroke-linecap="round" stroke-linejoin="round"/>
<path d="M29.3989 26.3246C28.9989 26.308 28.6989 25.9746 28.7323 25.5746L28.7489 25.108C28.7656 24.708 29.0989 24.408 29.4989 24.4413C29.8989 24.458 30.1989 24.7913 30.1656 25.1913L30.1489 25.658C30.1323 26.0413 29.7989 26.3413 29.3989 26.3246Z" fill="#423232"/>
<path d="M36.4156 26.5746C36.0489 26.5579 35.7656 26.2413 35.7823 25.8746L35.7989 25.4413C35.8156 25.0746 36.1323 24.7913 36.4989 24.808C36.8656 24.8246 37.1489 25.1413 37.1323 25.5079L37.1156 25.9413C37.0989 26.3079 36.7823 26.5913 36.4156 26.5746Z" fill="#423232"/>
<path d="M31.0156 25.358C31.0156 25.358 30.5822 24.7413 29.8322 24.6247C29.2156 24.5247 28.5323 24.8247 28.4323 25.1747" stroke="#423232" stroke-width="0.518406" stroke-miterlimit="10" stroke-linecap="round" stroke-linejoin="round"/>
<path d="M35.9323 25.508C35.9323 25.508 35.9323 24.9747 36.6989 24.9747C37.3323 24.9747 37.5989 25.558 37.5989 25.558" stroke="#423232" stroke-width="0.518406" stroke-miterlimit="10" stroke-linecap="round" stroke-linejoin="round"/>
<path d="M31.6989 22.6746C32.0489 22.7913 32.3989 22.4746 32.3322 22.0913C32.2989 21.8913 32.2156 21.6913 32.0489 21.5413C31.5489 21.0913 29.4822 20.6913 28.2322 21.2746C27.1322 21.808 30.0989 22.1413 31.6989 22.6746Z" fill="#423232"/>
<path d="M36.6822 22.9413C36.3989 23.0413 36.0989 22.7413 36.1489 22.3913C36.1655 22.208 36.2322 22.0247 36.3655 21.8913C36.7655 21.4913 38.1322 21.1747 38.9989 21.7913C39.7489 22.308 37.9822 22.458 36.6822 22.9413Z" fill="#423232"/>
<path d="M34.0225 32.2249C34.0398 32.5014 33.8324 32.9852 33.4523 33.3308C31.4996 32.1385 30.6183 32.7606 30.6183 32.7606C29.9271 31.7065 30.0826 30.2722 31.7588 31.3609C32.9338 32.1039 33.6423 32.2249 34.0225 32.2249Z" fill="#423232"/>
<path d="M33.4522 33.3308C33.0375 33.6937 32.4154 33.9184 31.5687 33.5728C31.1713 33.4172 30.8602 33.1062 30.6183 32.7606C30.6183 32.7606 31.4996 32.1385 33.4522 33.3308Z" fill="#FE9DAB"/>
<path d="M34.3509 32.1558C34.3509 32.1558 33.6251 32.5532 31.7588 31.3609C29.5297 29.9266 29.979 32.9334 31.5515 33.5727C33.1931 34.2467 34.0398 32.7779 34.0225 32.2249" stroke="#423232" stroke-width="0.518406" stroke-miterlimit="10" stroke-linecap="round" stroke-linejoin="round"/>
<path d="M30.6183 32.7606C30.6183 32.7606 31.4996 32.1385 33.4522 33.3308" stroke="#423232" stroke-width="0.518406" stroke-miterlimit="10" stroke-linecap="round" stroke-linejoin="round"/>
<path d="M39.4926 20.8911C39.4593 20.6911 39.4093 20.4911 39.3759 20.2745C39.1926 19.4578 38.9259 18.6911 38.5759 17.9745L36.6093 18.7911C36.0426 19.0245 35.4093 19.0911 34.7926 18.9911L26.9926 17.6411C26.0426 17.4745 25.126 18.0245 24.8093 18.9245C24.576 19.5745 24.2926 20.3245 23.9926 20.9578C21.626 21.3411 19.326 20.8411 17.1426 19.9078C16.976 19.8411 16.826 19.7745 16.6593 19.6911C16.9593 18.1745 15.8093 11.8411 17.2426 10.1912C17.726 9.64115 18.2093 9.57449 18.676 9.74115C19.7593 10.1245 20.976 9.90782 21.7593 9.07449C22.3926 8.42449 23.1926 7.85782 24.176 7.84116C24.6593 7.82449 25.0426 7.92449 25.3593 8.10782C26.3593 8.65782 27.576 8.47449 28.4759 7.79116C28.7593 7.59116 29.0593 7.45782 29.3926 7.45782C29.8759 7.45782 30.3093 7.65782 30.6593 7.92449C31.3259 8.42449 32.2093 8.54116 33.0259 8.37449C33.0759 8.35782 33.1259 8.35782 33.1759 8.35782C33.3759 8.35782 33.5926 8.40782 33.7759 8.49116C34.4759 8.79115 35.2593 8.82449 35.9593 8.52449C36.2926 8.39116 36.6926 8.39116 37.0926 8.77449C37.5926 9.25782 38.2426 9.57449 38.9426 9.59115C39.1259 9.59115 39.3593 9.67449 39.6426 9.85782C39.7759 9.95782 39.8926 10.1412 39.9759 10.3912C40.1093 10.7745 40.4259 11.0578 40.8259 11.1745C41.0759 11.2578 41.2593 11.5078 41.3093 12.0745C41.4759 13.8745 39.9093 19.4411 39.4926 20.8911Z" fill="#423232"/>
<path d="M40.7926 11.1578C40.0593 11.4245 39.9259 11.2745 39.0926 11.0578C38.2593 10.8412 37.5259 11.7745 36.926 10.8078C36.0593 9.39115 34.4593 10.3578 34.1426 10.0912C33.826 9.82449 32.8426 8.94116 31.4593 9.87449C30.5426 10.4912 29.376 9.39115 27.9093 9.39115C24.976 9.39115 24.4426 11.5411 23.426 10.5578C22.4093 9.59115 21.326 10.2412 19.826 10.5078C18.326 10.7745 17.5593 9.87449 17.5593 9.87449C17.926 9.62449 18.2927 9.62449 18.6427 9.74115C19.726 10.1245 20.9427 9.90782 21.726 9.07449C22.3593 8.42449 23.1593 7.85782 24.1426 7.84116C24.626 7.82449 25.0093 7.92449 25.326 8.10782C26.326 8.65782 27.5426 8.47449 28.4426 7.79116C28.726 7.59116 29.026 7.45782 29.3593 7.45782C29.8426 7.45782 30.276 7.65782 30.626 7.92449C31.2926 8.42449 32.176 8.54116 32.9926 8.37449C33.0426 8.35782 33.0926 8.35782 33.1426 8.35782C33.3426 8.35782 33.5593 8.40782 33.7426 8.49116C34.4426 8.79115 35.226 8.82449 35.926 8.52449C36.2593 8.39116 36.6593 8.39116 37.0593 8.77449C37.5593 9.25782 38.2093 9.57449 38.9093 9.59115C39.0926 9.59115 39.3259 9.67449 39.6093 9.85782C39.7426 9.95782 39.8593 10.1412 39.9426 10.3912C40.0759 10.7578 40.4093 11.0412 40.7926 11.1578Z" fill="#5E4949"/>
<path d="M23.2926 26.3578C23.0093 25.6578 22.2593 24.3745 20.4926 24.6078C18.7259 24.8245 17.9259 28.4078 20.5259 30.3745C21.2759 30.9245 22.0593 31.1911 22.0593 31.1911L20.0426 31.8911C20.0426 31.8911 16.3759 29.8078 16.2426 25.0411C16.1759 22.8245 16.4093 21.0245 16.6593 19.7078C18.9759 20.7745 21.4426 21.3912 23.9926 20.9745C23.7093 21.5578 23.3926 22.0412 23.0926 22.2745C22.1759 22.9412 23.4093 24.7245 23.2926 26.3578Z" fill="#99807F"/>
<path d="M23.3259 22.0412C23.2426 22.1245 23.1759 22.2078 23.0926 22.2578C22.8926 22.4078 22.7926 22.6245 22.7593 22.8745C21.7259 22.9245 20.2426 22.4912 19.7259 22.3245C19.6093 22.2912 19.5426 22.1912 19.5426 22.0745V21.9912C19.5426 21.8078 19.7093 21.6912 19.8759 21.7245C21.0259 22.0412 23.2426 22.0412 23.3259 22.0412Z" fill="#423232"/>
<path d="M22.976 24.2745C22.0593 24.2078 21.176 24.0412 20.776 23.9578C20.6427 23.9245 20.5593 23.8245 20.5593 23.6912C20.5593 23.5245 20.7093 23.4078 20.876 23.4245C21.626 23.5412 22.426 23.5245 22.8093 23.5078C22.8427 23.7412 22.9093 23.9912 22.976 24.2745Z" fill="#423232"/>
<path d="M21.4457 26.9666C21.4457 26.9666 20.1123 26.7666 20.2123 28.6332C20.2623 29.5832 20.2623 30.0999 20.2457 30.3665C20.229 30.5499 20.3457 30.7165 20.5123 30.7832C20.7123 30.8665 20.929 30.7832 21.029 30.5832C21.179 30.3165 21.3457 29.9499 21.3457 29.6499C21.3457 29.1499 21.879 28.6999 21.879 28.6999C21.879 28.6999 21.3957 28.2832 21.4457 26.9666Z" fill="white"/>
<path d="M25.479 59.0998C25.3457 58.9498 20.1124 49.9998 20.8957 46.6332C21.429 44.3165 20.729 41.6498 20.1124 39.2998C19.8624 38.3332 19.629 37.4332 19.4957 36.6332C19.2624 35.2498 19.429 33.9332 19.9957 32.7165C20.6124 31.3498 20.5124 30.1665 20.5124 30.1498L20.8457 30.1165C20.8457 30.1665 20.9457 31.4165 20.2957 32.8498C19.7624 33.9998 19.6124 35.2665 19.829 36.5832C19.9624 37.3665 20.1957 38.2665 20.4457 39.2332C21.079 41.6165 21.779 44.3332 21.229 46.7332C20.4957 49.9331 25.7124 58.8831 25.7457 58.9165L25.479 59.0998Z" fill="white"/>
<path d="M20.2624 29.5999C20.2791 29.9665 20.2624 30.2165 20.2624 30.3665C20.2457 30.5499 20.3624 30.7165 20.5291 30.7832C20.7291 30.8665 20.9457 30.7832 21.0457 30.5832C21.1957 30.3165 21.3624 29.9499 21.3624 29.6499C21.3624 29.6332 21.3624 29.5999 21.3624 29.5832C21.0124 29.7165 20.6124 29.8165 20.2624 29.5999Z" fill="#E5E5E5"/>
<path d="M35.9457 40.6832C35.829 41.4498 35.8123 42.6665 35.779 44.0832C35.729 46.8165 34.1123 57.4665 33.329 59.1498L33.029 59.0165C33.779 57.3831 35.3957 46.7832 35.4457 44.0832C35.479 42.6665 35.4957 41.4332 35.6123 40.6332C35.8623 38.9498 35.679 37.6832 35.579 37.1498C35.629 37.0998 35.679 37.0665 35.729 37.0165C35.779 36.9832 35.8123 36.9332 35.8623 36.8998C35.9623 37.3332 36.2457 38.7165 35.9457 40.6832Z" fill="white"/>
</g>
<path d="M55.1768 27.5001C55.1768 42.4578 43.0512 54.5834 28.0935 54.5834C13.1358 54.5834 1.01017 42.4578 1.01017 27.5001C1.01017 12.5424 13.1358 0.416728 28.0935 0.416728C43.0512 0.416728 55.1768 12.5424 55.1768 27.5001Z" stroke="#00747D" stroke-width="0.833334"/>
</svg>
