<svg width="51" height="51" viewBox="0 0 51 51" fill="none" xmlns="http://www.w3.org/2000/svg">
<g opacity="0.5">
<path d="M25.8994 50.5C12.0806 50.5 0.899475 39.3023 0.899475 25.5C0.899475 11.6812 12.0972 0.500122 25.8994 0.500122C39.7182 0.500122 50.8993 11.6978 50.8993 25.5C50.9159 39.3188 39.7182 50.5 25.8994 50.5Z" fill="#B5E2DC"/>
<mask id="mask0_17_1902" style="mask-type:alpha" maskUnits="userSpaceOnUse" x="0" y="0" width="51" height="51">
<path d="M25.8995 50.4999C12.0806 50.4999 0.899475 39.3022 0.899475 25.5C0.899475 11.6812 12.0972 0.500122 25.8995 0.500122C39.7183 0.500122 50.8995 11.6978 50.8995 25.5C50.916 39.3188 39.7183 50.4999 25.8995 50.4999Z" fill="#D95338"/>
</mask>
<g mask="url(#mask0_17_1902)">
<path d="M39.9659 46.5512C39.8493 46.6345 39.7159 46.7178 39.5993 46.8012C39.4659 46.8845 39.3493 46.9678 39.2159 47.0345C39.0993 47.1012 38.9993 47.1678 38.8826 47.2345C38.8659 47.2512 38.8493 47.2512 38.8326 47.2678C38.4493 47.5011 38.0493 47.7178 37.6493 47.9178C37.5326 47.9845 37.3993 48.0511 37.2826 48.1011C37.2826 48.1011 37.2659 48.1178 37.2493 48.1178C37.1159 48.1845 36.9826 48.2511 36.8493 48.3178C36.5826 48.4511 36.2993 48.5678 36.0326 48.6845C35.8993 48.7511 35.7493 48.8011 35.6159 48.8511C35.4826 48.9011 35.3326 48.9678 35.1993 49.0178C35.0659 49.0678 34.9159 49.1345 34.7826 49.1845C34.7826 49.1845 34.7826 49.1845 34.7659 49.1845C34.6326 49.2345 34.4826 49.2845 34.3493 49.3345C34.0493 49.4345 33.7326 49.5345 33.4326 49.6345C33.3326 49.6678 33.2159 49.7011 33.1159 49.7345C32.7993 49.8345 32.4826 49.9178 32.1659 49.9845C32.0493 50.0178 31.9326 50.0345 31.7993 50.0678C31.4993 50.1345 31.1826 50.2011 30.8826 50.2678C30.8159 50.2845 30.7659 50.2845 30.6993 50.3011C30.5993 50.3178 30.4826 50.3345 30.3826 50.3511C30.2326 50.3678 30.0993 50.4011 29.9493 50.4178C29.8826 50.4345 29.816 50.4345 29.7493 50.4511C29.666 50.4678 29.566 50.4845 29.466 50.4845C29.1993 50.5178 28.916 50.5511 28.6493 50.5845C28.566 50.6011 28.466 50.6011 28.3826 50.6178H28.366C28.2493 50.6345 28.1326 50.6345 28.016 50.6511C27.8993 50.6678 27.7826 50.6678 27.666 50.6678C27.5993 50.6678 27.516 50.6845 27.4493 50.6845C27.316 50.6845 27.1993 50.7011 27.0826 50.7011C26.916 50.7011 26.766 50.7178 26.5993 50.7178C26.4326 50.7178 26.2826 50.7178 26.116 50.7178C25.9993 50.7178 25.8826 50.7178 25.766 50.7178C18.7493 50.6178 12.416 47.6345 7.91602 42.9012C7.91602 42.9012 7.91602 42.8845 7.89935 42.8845C8.41602 41.8678 10.3327 40.0345 12.3327 38.5178C14.866 36.6012 18.4493 35.4179 18.4493 35.4179C18.4493 35.4179 20.7993 35.0345 29.516 36.8512C36.1659 38.2512 38.9993 43.9345 39.9659 46.5512Z" fill="#FEE4BF"/>
<path d="M31.366 41.4678C31.016 43.1845 28.7493 44.2011 24.9327 42.6678C20.2494 40.7678 18.4494 35.4178 18.4494 35.4178C18.1994 31.5845 17.616 28.3012 17.616 28.3012C23.0327 27.8345 29.4327 34.1678 29.4327 34.1678L30.166 37.3012C30.2327 37.5678 30.366 37.8012 30.566 37.9678C30.916 38.5678 31.5993 40.3678 31.366 41.4678Z" fill="#FEE4BF"/>
<path d="M30.566 37.9845C27.3826 37.8179 25.0327 37.3512 22.516 32.8345C24.6493 34.7179 27.166 35.4345 29.816 35.7679L30.166 37.3012C30.2326 37.5845 30.366 37.8179 30.566 37.9845Z" fill="#EFBDA5"/>
<path d="M37.1493 17.9012C37.4493 19.3012 37.5993 20.4346 36.7826 24.1679C35.966 27.9012 37.5326 31.6345 33.5993 35.0512C30.9493 37.3512 26.316 37.7845 22.616 35.2678C21.366 34.4178 20.216 33.2345 19.2827 31.6845C18.5493 30.4679 17.6993 29.3179 16.7493 28.2679C15.4327 26.8345 13.8494 23.9512 14.6327 18.8512C15.8993 10.5513 24.116 9.60126 28.966 10.5179C33.816 11.4346 36.3326 14.2012 37.1493 17.9012Z" fill="#FEE4BF"/>
<path d="M21.1993 24.4179C21.1993 24.4179 20.6826 21.9179 18.2493 22.2179C16.1493 22.4846 15.416 27.5179 20.1826 28.9179" fill="#FEE4BF"/>
<path d="M20.0327 26.6345C20.0327 26.6345 19.4327 26.2512 19.4993 25.5845C19.5993 24.8012 19.4993 24.3179 19.1327 24.1679C18.216 23.7845 18.0327 24.8512 18.066 24.9845" stroke="#423232" stroke-width="0.518406" stroke-miterlimit="10" stroke-linecap="round" stroke-linejoin="round"/>
<path d="M32.7493 28.2512C32.7493 28.2512 33.3826 28.2846 33.9826 27.5679C34.316 27.1679 34.5993 26.6679 34.416 26.5179C34.2326 26.3512 31.216 26.8179 31.016 27.2179C30.816 27.6179 31.9826 28.2512 32.7493 28.2512Z" fill="#EFBDA5"/>
<path d="M33.2493 22.6512C33.2493 22.6512 33.2826 24.2346 34.2993 26.0012C34.7493 26.7846 34.066 28.0679 32.5826 28.2846" stroke="#423232" stroke-width="0.518406" stroke-miterlimit="10" stroke-linecap="round" stroke-linejoin="round"/>
<path opacity="0.42" d="M24.216 29.1012C25.1641 29.1012 25.9327 28.4669 25.9327 27.6845C25.9327 26.9021 25.1641 26.2679 24.216 26.2679C23.2679 26.2679 22.4993 26.9021 22.4993 27.6845C22.4993 28.4669 23.2679 29.1012 24.216 29.1012Z" fill="#F2A5B2"/>
<path opacity="0.42" d="M36.516 26.3012C36.466 27.2345 36.4826 28.1512 36.416 29.0679C35.6826 28.9012 35.1493 28.3512 35.1493 27.7012C35.1493 27.0012 35.7326 26.4345 36.516 26.3012Z" fill="#F2A5B2"/>
<path d="M45.4735 56.8648H3.34027C3.34027 56.8648 3.59027 49.1315 6.1236 43.6148C8.04026 39.4482 12.5569 37.1315 15.9236 35.9315C16.8736 35.5982 17.7402 35.3482 18.4069 35.1649C18.4069 35.2482 18.4236 35.3149 18.4236 35.3982C18.4236 35.3982 20.2236 40.7482 24.9069 42.6482C28.7235 44.1982 30.9902 43.1648 31.3402 41.4482C31.5569 40.3482 30.8735 38.5482 30.5235 37.9648C30.3235 37.7982 30.1902 37.5482 30.1235 37.2982L29.9902 36.7482C30.3069 36.6815 30.6069 36.5982 30.9069 36.4982C31.0069 36.4649 31.0902 36.4315 31.1902 36.3982C33.3402 36.9648 36.5735 38.3148 40.3902 41.5148C44.7068 45.1148 45.4735 56.8648 45.4735 56.8648Z" fill="#BEE3EB"/>
<path d="M23.4568 44.3815C17.7069 41.7982 15.4735 37.1815 15.9069 35.9315C15.9069 35.9315 15.9069 35.9148 15.9235 35.8982C16.2235 35.2815 16.7069 34.7815 17.3069 34.4315C17.6402 34.2315 18.0069 34.0482 18.3069 33.9482C18.3235 34.1815 18.3902 34.9148 18.4068 35.1648C18.4068 35.2482 18.4235 35.3148 18.4235 35.3982C18.4235 35.3982 19.4902 39.3815 24.1735 41.2815C27.9902 42.8315 30.3568 41.8148 30.6068 40.0815C30.8901 38.1648 29.8068 36.7815 29.8068 36.7815C30.1235 36.7148 30.6235 36.5982 30.9235 36.4982C31.6568 37.3815 32.4068 38.2648 32.6901 40.5982C33.0901 43.9482 29.4068 47.0648 23.4568 44.3815Z" fill="white"/>
<path d="M11.5903 56.8648L10.8403 50.6815" stroke="#544D4D" stroke-width="0.518406" stroke-miterlimit="10" stroke-linecap="round" stroke-linejoin="round"/>
<path d="M40.6902 48.5815C40.6902 48.5815 40.1902 49.7981 40.3402 51.0148C40.4902 52.2315 40.9235 54.0148 40.3068 56.8648" stroke="#544D4D" stroke-width="0.518406" stroke-miterlimit="10" stroke-linecap="round" stroke-linejoin="round"/>
<path d="M27.205 24.3246C26.805 24.3079 26.505 23.9746 26.5383 23.5746L26.555 23.1079C26.5716 22.7079 26.905 22.4079 27.305 22.4413C27.705 22.4579 28.005 22.7912 27.9716 23.1912L27.955 23.6579C27.9383 24.0412 27.605 24.3412 27.205 24.3246Z" fill="#423232"/>
<path d="M34.2216 24.5746C33.8549 24.5579 33.5716 24.2412 33.5882 23.8746L33.6049 23.4412C33.6216 23.0746 33.9382 22.7912 34.3049 22.8079C34.6716 22.8246 34.9549 23.1412 34.9382 23.5079L34.9216 23.9412C34.9049 24.3079 34.5882 24.5912 34.2216 24.5746Z" fill="#423232"/>
<path d="M28.8216 23.3579C28.8216 23.3579 28.3883 22.7413 27.6383 22.6246C27.0216 22.5246 26.3383 22.8246 26.2383 23.1746" stroke="#423232" stroke-width="0.518406" stroke-miterlimit="10" stroke-linecap="round" stroke-linejoin="round"/>
<path d="M33.7383 23.5079C33.7383 23.5079 33.7383 22.9746 34.5049 22.9746C35.1383 22.9746 35.4049 23.5579 35.4049 23.5579" stroke="#423232" stroke-width="0.518406" stroke-miterlimit="10" stroke-linecap="round" stroke-linejoin="round"/>
<path d="M29.5049 20.6746C29.8549 20.7912 30.2049 20.4746 30.1383 20.0912C30.1049 19.8912 30.0216 19.6912 29.8549 19.5412C29.3549 19.0912 27.2883 18.6912 26.0383 19.2746C24.9383 19.8079 27.9049 20.1412 29.5049 20.6746Z" fill="#423232"/>
<path d="M34.4882 20.9413C34.2049 21.0413 33.9049 20.7413 33.9549 20.3913C33.9716 20.2079 34.0382 20.0246 34.1716 19.8913C34.5716 19.4913 35.9382 19.1746 36.8049 19.7913C37.5549 20.3079 35.7882 20.4579 34.4882 20.9413Z" fill="#423232"/>
<path d="M32.3196 30.3025C31.8876 30.4926 31.6803 30.1124 31.0064 30.4407C30.5225 30.6654 30.2633 30.7345 29.6758 30.3889C29.2956 30.147 28.829 30.4926 28.3798 29.8359" stroke="#423232" stroke-width="0.518406" stroke-miterlimit="10" stroke-linecap="round" stroke-linejoin="round"/>
<path d="M30.3682 36.6409C31.5848 36.3243 32.6681 35.7743 33.5515 35.0076C37.4848 31.6076 35.9181 27.8576 36.7348 24.1243C37.0015 22.9243 37.1515 21.991 37.2515 21.241C37.1181 21.2243 36.9681 21.2077 36.8181 21.1743C36.2181 21.091 35.8181 20.541 35.8848 19.941C35.9181 19.691 35.9348 19.441 35.9515 19.1743C35.8848 19.1577 35.9015 19.1577 35.8348 19.1577C35.7348 19.4743 35.6181 19.8077 35.5348 20.1243C35.3848 20.6243 34.9015 20.941 34.4015 20.9077H34.3848C33.8015 20.8577 33.3681 20.3743 33.3681 19.791C33.3848 19.3743 33.3848 18.9577 33.4015 18.541C33.3348 18.5243 33.3681 18.541 33.3015 18.5243C33.2181 18.9577 33.1348 19.391 33.0515 19.841C32.9515 20.391 32.4681 20.7743 31.9181 20.741C30.4848 20.6743 29.0682 20.6577 27.7848 20.6577C27.2182 20.6577 26.7515 20.241 26.7015 19.6743C26.6182 18.941 26.5015 18.2077 26.3015 17.4577C26.0848 18.1243 26.0848 18.8243 26.1182 19.541C26.1515 20.1577 25.6682 20.6743 25.0515 20.691C23.5682 20.7243 22.5682 20.7743 22.4015 20.791C22.4515 23.0743 21.9348 25.6076 21.0182 23.891C20.9515 23.7743 20.9015 23.6576 20.8348 23.5076C20.4515 22.8243 19.6848 22.0077 18.2349 22.191C16.2015 22.4577 15.4515 27.1743 19.7182 28.741C19.7349 29.091 19.8182 29.441 19.9682 29.8076C20.6182 31.391 20.9015 32.7076 20.9015 33.7909C20.9015 40.0743 10.6182 37.4576 7.71822 31.7576C6.60156 29.541 6.58489 26.8743 8.70155 24.0743C13.8849 17.7243 12.3349 20.141 13.4849 16.3743C15.3682 10.2077 19.6682 8.24103 25.3682 8.29103C25.3682 8.29103 34.8515 8.29103 37.3681 10.591C39.8848 12.891 39.0181 20.0743 38.8015 20.7243C38.7348 20.9243 38.5681 21.041 38.3848 21.1243C38.2848 24.4076 38.6181 25.5576 39.7848 28.2076C42.3348 34.0409 37.5181 39.5909 30.3682 36.6409Z" fill="#423232"/>
<path d="M21.0181 23.9076C20.9514 23.791 20.9014 23.6743 20.8348 23.5243C20.9014 23.6576 20.9681 23.791 21.0181 23.9076Z" fill="#FEE4BF"/>
<path opacity="0.6" d="M34.1719 26.5483C34.1719 26.5483 34.3719 27.6816 35.6885 28.2483C36.0219 28.3816 36.3719 28.1649 36.3719 27.7983C36.3552 27.7983 34.2552 26.6816 34.1719 26.5483Z" fill="#B7AEA9"/>
<path opacity="0.6" d="M31.0052 23.8149C31.0052 23.8149 32.0719 22.7483 32.6052 22.6316L31.1886 22.9649L31.0052 23.8149Z" fill="#B7AEA9"/>
<path opacity="0.6" d="M23.8886 26.5483C23.8886 26.5483 24.5053 27.9483 26.3553 28.2816C28.2053 28.6316 29.8886 27.2983 30.6719 25.0649C30.6719 25.0649 30.0386 27.1316 27.5053 27.5149C24.9886 27.9316 23.8886 26.5483 23.8886 26.5483Z" fill="#B7AEA9"/>
<path opacity="0.29" d="M26.8719 19.065C24.5219 19.065 22.6052 21.0317 22.5886 23.4317C22.5886 24.565 23.0052 25.5983 23.6886 26.3483L29.7385 20.2317C28.9885 19.4983 27.9885 19.065 26.8719 19.065Z" fill="#DBC3ED"/>
<path opacity="0.23" d="M29.7386 20.2316L23.6886 26.3483C24.4553 27.1983 25.5386 27.7149 26.7386 27.7149C29.0552 27.7149 30.9552 25.7983 31.0219 23.415C31.0552 22.165 30.5552 21.0316 29.7386 20.2316Z" fill="#C4ADD8"/>
<path opacity="0.29" d="M36.6218 19.065C34.8385 19.065 33.3385 21.0317 33.2719 23.4317C33.2385 24.3983 33.4552 25.2817 33.8219 25.9983L39.1052 20.765C38.5552 19.7317 37.6552 19.065 36.6218 19.065Z" fill="#DBC3ED"/>
<path opacity="0.23" d="M39.1052 20.7483L33.8218 25.9816C34.3718 27.0316 35.2718 27.7149 36.3218 27.7149C38.0718 27.7149 39.5718 25.7983 39.6718 23.415C39.7052 22.4316 39.4885 21.4983 39.1052 20.7483Z" fill="#C4ADD8"/>
<path d="M31.0219 23.4317C30.9719 25.815 29.0552 27.7316 26.7386 27.7316C24.4219 27.7316 22.5719 25.815 22.5719 23.4317C22.5886 21.0317 24.5052 19.065 26.8552 19.065C29.2052 19.065 31.0885 21.0317 31.0219 23.4317Z" stroke="#4EC2DD" stroke-width="0.518406" stroke-miterlimit="10" stroke-linecap="round" stroke-linejoin="round"/>
<path d="M39.6718 23.4317C39.5718 25.815 38.0719 27.7316 36.3219 27.7316C34.5719 27.7316 33.2052 25.815 33.2719 23.4317C33.3385 21.0317 34.8385 19.065 36.6219 19.065C38.4052 19.065 39.7718 21.0317 39.6718 23.4317Z" stroke="#4EC2DD" stroke-width="0.518406" stroke-miterlimit="10" stroke-linecap="round" stroke-linejoin="round"/>
<path d="M22.6219 22.965H20.2552" stroke="#4EC2DD" stroke-width="0.518406" stroke-miterlimit="10" stroke-linecap="round" stroke-linejoin="round"/>
<path d="M31.0386 22.9649C31.0386 22.9649 33.0219 22.1983 33.2719 22.9649" stroke="#4EC2DD" stroke-width="0.518406" stroke-miterlimit="10" stroke-linecap="round" stroke-linejoin="round"/>
</g>
</g>
</svg>
