<svg width="51" height="51" viewBox="0 0 51 51" fill="none" xmlns="http://www.w3.org/2000/svg">
<g opacity="0.5">
<path d="M25.7054 50.4999C11.8866 50.4999 0.705444 39.3021 0.705444 25.4999C0.705444 11.681 11.9032 0.499878 25.7054 0.499878C39.5243 0.499878 50.7054 11.6976 50.7054 25.4999C50.722 39.3187 39.5243 50.4999 25.7054 50.4999Z" fill="#B5E2DC"/>
<mask id="mask0_17_1882" style="mask-type:alpha" maskUnits="userSpaceOnUse" x="0" y="0" width="51" height="51">
<path d="M25.7054 50.4999C11.8866 50.4999 0.705444 39.3021 0.705444 25.4999C0.705444 11.681 11.9032 0.499878 25.7054 0.499878C39.5243 0.499878 50.7054 11.6976 50.7054 25.4999C50.722 39.3187 39.5243 50.4999 25.7054 50.4999Z" fill="#F7C0B5"/>
</mask>
<g mask="url(#mask0_17_1882)">
<path d="M39.7388 46.5509C39.6222 46.6342 39.4888 46.7175 39.3722 46.8009C39.2388 46.8842 39.1222 46.9675 38.9888 47.0342C38.8722 47.1009 38.7722 47.1675 38.6555 47.2342C38.6388 47.2509 38.6222 47.2509 38.6055 47.2675C38.2222 47.5009 37.8222 47.7175 37.4222 47.9175C37.3055 47.9842 37.1722 48.0509 37.0555 48.1009C37.0555 48.1009 37.0388 48.1175 37.0222 48.1175C36.8888 48.1842 36.7555 48.2509 36.6222 48.3175C36.3555 48.4509 36.0722 48.5675 35.8055 48.6842C35.6722 48.7509 35.5222 48.8009 35.3888 48.8509C35.2555 48.9009 35.1055 48.9675 34.9722 49.0175C34.8388 49.0675 34.6888 49.1342 34.5555 49.1842C34.5555 49.1842 34.5555 49.1842 34.5388 49.1842C34.4055 49.2342 34.2555 49.2842 34.1222 49.3342C33.8222 49.4342 33.5055 49.5342 33.2055 49.6342C33.1055 49.6675 32.9888 49.7009 32.8888 49.7342C32.5722 49.8342 32.2555 49.9175 31.9388 49.9842C31.8222 50.0175 31.7055 50.0342 31.5722 50.0675C31.2722 50.1342 30.9555 50.2009 30.6555 50.2675C30.5888 50.2842 30.5388 50.2842 30.4722 50.3009C30.3722 50.3175 30.2555 50.3342 30.1555 50.3509C30.0055 50.3675 29.8722 50.4009 29.7222 50.4175C29.6555 50.4342 29.5888 50.4342 29.5222 50.4509C29.4388 50.4675 29.3388 50.4842 29.2388 50.4842C28.9722 50.5175 28.6888 50.5509 28.4222 50.5842C28.3388 50.6009 28.2388 50.6009 28.1555 50.6175H28.1388C28.0222 50.6342 27.9055 50.6342 27.7888 50.6509C27.6722 50.6675 27.5555 50.6675 27.4388 50.6675C27.3722 50.6675 27.2888 50.6842 27.2222 50.6842C27.0888 50.6842 26.9722 50.7009 26.8555 50.7009C26.6888 50.7009 26.5388 50.7175 26.3722 50.7175C26.2055 50.7175 26.0555 50.7175 25.8888 50.7175C25.7722 50.7175 25.6555 50.7175 25.5388 50.7175C18.5222 50.6175 12.1888 47.6342 7.68885 42.9009C7.68885 42.9009 7.68885 42.8842 7.67218 42.8842C8.18885 41.8675 10.1055 40.0342 12.1055 38.5175C14.6388 36.6009 18.2222 35.4176 18.2222 35.4176C18.2222 35.4176 20.5722 35.0342 29.2888 36.8509C35.9388 38.2509 38.7722 43.9342 39.7388 46.5509Z" fill="#AD827B"/>
<path d="M31.1389 41.4675C30.7889 43.1842 28.5222 44.2009 24.7055 42.6675C20.0222 40.7675 18.2222 35.4176 18.2222 35.4176C17.9722 31.5842 17.3889 28.3009 17.3889 28.3009C22.8055 27.8342 29.2055 34.1676 29.2055 34.1676L29.9389 37.3009C30.0055 37.5675 30.1389 37.8009 30.3389 37.9675C30.6889 38.5675 31.3722 40.3675 31.1389 41.4675Z" fill="#AD827B"/>
<path d="M30.3388 37.9842C27.1555 37.8176 24.8055 37.3509 22.2888 32.8342C24.4222 34.7176 26.9388 35.4342 29.5888 35.7676L29.9388 37.3009C30.0055 37.5842 30.1388 37.8176 30.3388 37.9842Z" fill="#8E5650"/>
<path d="M36.9222 17.9009C37.2222 19.3009 37.3722 20.4342 36.5555 24.1676C35.7388 27.9009 37.3055 31.6342 33.3722 35.0509C30.7222 37.3509 26.0888 37.7842 22.3888 35.2675C21.1388 34.4175 19.9888 33.2342 19.0555 31.6842C18.3222 30.4675 17.4722 29.3175 16.5222 28.2675C15.2055 26.8342 13.6222 23.9509 14.4055 18.8509C15.6722 10.5509 23.8888 9.60089 28.7388 10.5176C33.5888 11.4342 36.1055 14.2009 36.9222 17.9009Z" fill="#AD827B"/>
<path d="M20.9722 24.4176C20.9722 24.4176 20.4555 21.9176 18.0222 22.2176C15.9222 22.4842 15.1888 27.5176 19.9555 28.9176" fill="#AD827B"/>
<path d="M19.8055 26.6342C19.8055 26.6342 19.2055 26.2509 19.2722 25.5842C19.3722 24.8009 19.2722 24.3176 18.9055 24.1676C17.9888 23.7842 17.8055 24.8509 17.8388 24.9842" stroke="#423232" stroke-width="0.518407" stroke-miterlimit="10" stroke-linecap="round" stroke-linejoin="round"/>
<path d="M32.5221 28.2509C32.5221 28.2509 33.1555 28.2842 33.7555 27.5675C34.0888 27.1675 34.3721 26.6675 34.1888 26.5175C34.0055 26.3509 30.9888 26.8175 30.7888 27.2175C30.5888 27.6175 31.7555 28.2509 32.5221 28.2509Z" fill="#8E605C"/>
<path d="M33.0221 22.6509C33.0221 22.6509 33.0555 24.2342 34.0721 26.0009C34.5221 26.7842 33.8388 28.0675 32.3555 28.2842" stroke="#423232" stroke-width="0.518407" stroke-miterlimit="10" stroke-linecap="round" stroke-linejoin="round"/>
<path d="M35.6223 40.0997C35.6223 40.0997 33.039 37.6831 30.489 37.0997C30.489 37.0997 30.789 41.3997 27.7556 41.0831C22.8556 40.5664 18.239 35.3664 18.239 35.3664C18.239 35.3664 15.0223 36.2664 12.4223 38.2497C12.4223 38.2497 12.7723 43.3664 18.6223 45.8997C24.4723 48.4331 32.6223 47.1831 34.5556 45.5497C36.489 43.9164 36.1056 40.6331 35.6223 40.0997Z" fill="white"/>
<path d="M10.989 39.3497C10.989 39.3497 7.75563 41.1331 5.98897 46.2164C4.2223 51.2997 4.2723 58.8664 4.2723 58.8664H42.3056C42.3056 58.8664 41.239 46.3831 37.4723 42.2164C37.4723 42.2164 37.7223 45.9497 30.339 46.3331C22.9556 46.7164 14.0723 44.3664 13.8556 42.9997C13.6556 41.5997 10.989 39.3497 10.989 39.3497Z" fill="white"/>
<path d="M39.0223 59.1664C28.5557 63.9997 11.3223 59.633 11.3223 59.633C11.3223 59.633 10.9723 55.3831 12.239 47.7331C12.289 47.3831 12.339 47.0331 12.3723 46.7164C12.739 43.2497 11.889 40.8664 10.989 39.3664C10.989 38.9831 11.389 38.7164 11.839 38.3331C12.0223 38.1831 15.3057 36.1497 15.439 36.2497C15.6723 36.5831 15.889 36.9164 16.0723 37.2664C17.939 40.7164 18.589 44.4164 22.4723 44.9497C26.3057 45.4831 30.0057 45.3997 32.6557 44.8164C35.2057 44.2497 33.5057 40.0164 32.3723 37.9331C32.3223 37.8497 32.3223 37.8164 32.2723 37.7831C32.6557 37.5331 37.1057 40.9497 37.4557 42.2164C38.189 44.0497 38.389 45.4164 38.6057 47.1997C39.3223 53.0497 39.0223 59.1664 39.0223 59.1664Z" fill="#77A0E0"/>
<path d="M16.139 44.833C16.7281 44.833 17.2057 44.3555 17.2057 43.7664C17.2057 43.1773 16.7281 42.6997 16.139 42.6997C15.5499 42.6997 15.0723 43.1773 15.0723 43.7664C15.0723 44.3555 15.5499 44.833 16.139 44.833Z" fill="#647184"/>
<path d="M36.0223 45.2831C36.5562 45.2831 36.989 44.8503 36.989 44.3164C36.989 43.7825 36.5562 43.3497 36.0223 43.3497C35.4885 43.3497 35.0557 43.7825 35.0557 44.3164C35.0557 44.8503 35.4885 45.2831 36.0223 45.2831Z" fill="#647184"/>
<path d="M23.589 46.7997C26.1223 46.9497 29.289 46.9997 31.939 46.6164C33.7223 46.3664 35.339 47.683 35.4723 49.4664C35.589 51.233 35.639 53.383 35.3556 55.2664C34.7723 59.333 20.2223 59.133 19.989 55.5497C19.8556 53.6997 19.739 52.1997 19.6056 50.9664C19.3556 48.6497 21.2556 46.6664 23.589 46.7997Z" stroke="#647184" stroke-width="0.518407" stroke-miterlimit="10"/>
<path d="M28.439 41.0663C28.439 41.0663 25.389 44.7663 24.4557 44.483C23.5223 44.1997 17.7223 41.1163 16.8057 35.8497C16.8057 35.8497 17.5223 34.683 18.1557 34.3163C18.1557 34.3163 19.9057 37.3997 23.0723 39.2497C26.089 40.9997 28.439 41.0663 28.439 41.0663Z" fill="white"/>
<path d="M28.439 41.0663C28.439 41.0663 25.389 44.7663 24.4557 44.483C23.5223 44.1997 17.7223 41.1163 16.8057 35.8497" stroke="#D0D6DD" stroke-width="0.518407" stroke-miterlimit="10" stroke-linecap="round" stroke-linejoin="round"/>
<path d="M28.439 41.0663C28.439 41.0663 30.8056 43.833 31.589 43.8663C32.3723 43.8997 32.7056 39.033 30.3556 36.5663C30.3556 36.5663 29.989 36.6663 29.839 36.6997C29.8223 36.683 31.0056 40.233 28.439 41.0663Z" fill="white"/>
<path d="M28.439 41.0663C28.439 41.0663 30.8056 43.833 31.589 43.8663C32.3723 43.8997 32.7056 39.033 30.3556 36.5663" stroke="#D0D6DD" stroke-width="0.518407" stroke-miterlimit="10" stroke-linecap="round" stroke-linejoin="round"/>
<path d="M28.2057 41.333C28.2057 41.333 27.739 41.8497 27.9057 42.983C28.0723 44.0997 28.039 45.2163 28.039 45.2163" stroke="#D0D6DD" stroke-width="0.518407" stroke-miterlimit="10" stroke-linecap="round" stroke-linejoin="round"/>
<path d="M29.0556 43.833C29.2673 43.833 29.439 43.6614 29.439 43.4497C29.439 43.238 29.2673 43.0663 29.0556 43.0663C28.8439 43.0663 28.6723 43.238 28.6723 43.4497C28.6723 43.6614 28.8439 43.833 29.0556 43.833Z" fill="#D0D6DD"/>
<path d="M27.011 24.3243C26.611 24.3077 26.311 23.9743 26.3443 23.5743L26.361 23.1077C26.3777 22.7077 26.711 22.4077 27.111 22.441C27.511 22.4577 27.811 22.791 27.7777 23.191L27.761 23.6577C27.7443 24.041 27.411 24.341 27.011 24.3243Z" fill="#423232"/>
<path d="M34.0276 24.5743C33.661 24.5576 33.3776 24.241 33.3943 23.8743L33.411 23.441C33.4276 23.0743 33.7443 22.791 34.111 22.8076C34.4776 22.8243 34.761 23.141 34.7443 23.5076L34.7276 23.941C34.711 24.3076 34.3943 24.591 34.0276 24.5743Z" fill="#423232"/>
<path d="M28.6276 23.3577C28.6276 23.3577 28.1943 22.741 27.4443 22.6244C26.8276 22.5244 26.1443 22.8244 26.0443 23.1744" stroke="#423232" stroke-width="0.518407" stroke-miterlimit="10" stroke-linecap="round" stroke-linejoin="round"/>
<path d="M33.5443 23.5077C33.5443 23.5077 33.5443 22.9744 34.311 22.9744C34.9443 22.9744 35.211 23.5577 35.211 23.5577" stroke="#423232" stroke-width="0.518407" stroke-miterlimit="10" stroke-linecap="round" stroke-linejoin="round"/>
<path d="M29.311 20.6743C29.661 20.791 30.011 20.4743 29.9443 20.091C29.911 19.891 29.8276 19.691 29.661 19.541C29.161 19.091 27.0943 18.691 25.8443 19.2743C24.7443 19.8077 27.711 20.141 29.311 20.6743Z" fill="#423232"/>
<path d="M34.2943 20.941C34.0109 21.041 33.7109 20.741 33.7609 20.391C33.7776 20.2077 33.8443 20.0244 33.9776 19.891C34.3776 19.491 35.7443 19.1744 36.6109 19.791C37.3609 20.3077 35.5943 20.4577 34.2943 20.941Z" fill="#423232"/>
<path d="M32.1258 30.3023C31.6937 30.4924 31.4864 30.1122 30.8125 30.4406C30.3286 30.6652 30.0694 30.7343 29.4819 30.3887C29.1017 30.1468 28.6351 30.4924 28.1859 29.8358" stroke="#423232" stroke-width="0.518407" stroke-miterlimit="10" stroke-linecap="round" stroke-linejoin="round"/>
<path d="M19.0578 24.9662C19.0578 24.9662 17.7244 24.7662 17.8244 26.6329C17.8744 27.5829 17.8744 28.0995 17.8578 28.3662C17.8411 28.5495 17.9578 28.7162 18.1244 28.7829C18.3244 28.8662 18.5411 28.7829 18.6411 28.5829C18.7911 28.3162 18.9578 27.9495 18.9578 27.6495C18.9578 27.1495 19.4911 26.6995 19.4911 26.6995C19.4911 26.6995 19.0078 26.2829 19.0578 24.9662Z" fill="white"/>
<path d="M23.0912 57.0995C22.9578 56.9495 17.7245 47.9995 18.5078 44.6328C19.0412 42.3161 18.3412 39.6495 17.7245 37.2995C17.4745 36.3328 17.2412 35.4328 17.1078 34.6328C16.8745 33.2495 17.0412 31.9328 17.6078 30.7162C18.2245 29.3495 18.1245 28.1661 18.1245 28.1495L18.4578 28.1161C18.4578 28.1661 18.5578 29.4162 17.9078 30.8495C17.3745 31.9995 17.2245 33.2662 17.4412 34.5828C17.5745 35.3662 17.8078 36.2661 18.0578 37.2328C18.6912 39.6161 19.3912 42.3328 18.8412 44.7328C18.1078 47.9328 23.3245 56.8828 23.3578 56.9162L23.0912 57.0995Z" fill="white"/>
<path d="M17.8745 27.5995C17.8912 27.9662 17.8745 28.2162 17.8745 28.3662C17.8578 28.5495 17.9745 28.7162 18.1412 28.7828C18.3412 28.8662 18.5578 28.7828 18.6578 28.5828C18.8078 28.3162 18.9745 27.9495 18.9745 27.6495C18.9745 27.6328 18.9745 27.5995 18.9745 27.5828C18.6245 27.7162 18.2245 27.8162 17.8745 27.5995Z" fill="#E5E5E5"/>
<path d="M33.5578 38.6828C33.4411 39.4495 33.4244 40.6661 33.3911 42.0828C33.3411 44.8161 31.7244 55.4661 30.9411 57.1495L30.6411 57.0161C31.3911 55.3828 33.0078 44.7828 33.0578 42.0828C33.0911 40.6661 33.1078 39.4328 33.2244 38.6328C33.4744 36.9495 33.2911 35.6828 33.1911 35.1495C33.2411 35.0995 33.2911 35.0661 33.3411 35.0161C33.3911 34.9828 33.4244 34.9328 33.4744 34.8995C33.5744 35.3328 33.8578 36.7161 33.5578 38.6828Z" fill="white"/>
</g>
</g>
</svg>
