<svg width="51" height="51" viewBox="0 0 51 51" fill="none" xmlns="http://www.w3.org/2000/svg">
<g opacity="0.5">
<path d="M25.5115 50.5C11.6926 50.5 0.511475 39.3023 0.511475 25.5C0.511475 11.6812 11.7092 0.5 25.5115 0.5C39.3304 0.5 50.5115 11.6978 50.5115 25.5C50.5281 39.3189 39.3304 50.5 25.5115 50.5Z" fill="#B5E2DC"/>
<mask id="mask0_17_1912" style="mask-type:alpha" maskUnits="userSpaceOnUse" x="0" y="0" width="51" height="51">
<path d="M25.5115 50.5001C11.6926 50.5001 0.511475 39.3023 0.511475 25.5C0.511475 11.6812 11.7092 0.5 25.5115 0.5C39.3303 0.5 50.5115 11.6978 50.5115 25.5C50.528 39.3189 39.3303 50.5001 25.5115 50.5001Z" fill="#F7C0B5"/>
</mask>
<g mask="url(#mask0_17_1912)">
<path d="M39.5113 46.5512C39.3947 46.6345 39.2613 46.7179 39.1447 46.8012C39.0113 46.8845 38.8947 46.9679 38.7613 47.0345C38.6447 47.1012 38.5447 47.1679 38.428 47.2345C38.4113 47.2512 38.3947 47.2512 38.378 47.2679C37.9947 47.5012 37.5947 47.7179 37.1947 47.9179C37.078 47.9845 36.9447 48.0512 36.828 48.1012C36.828 48.1012 36.8113 48.1179 36.7947 48.1179C36.6613 48.1845 36.528 48.2512 36.3947 48.3179C36.128 48.4512 35.8447 48.5679 35.578 48.6845C35.4447 48.7512 35.2947 48.8012 35.1613 48.8512C35.028 48.9012 34.878 48.9679 34.7447 49.0179C34.6113 49.0679 34.4613 49.1345 34.328 49.1845C34.328 49.1845 34.328 49.1845 34.3113 49.1845C34.178 49.2345 34.028 49.2845 33.8947 49.3345C33.5947 49.4345 33.278 49.5345 32.978 49.6345C32.878 49.6679 32.7613 49.7012 32.6613 49.7345C32.3447 49.8345 32.028 49.9179 31.7113 49.9845C31.5947 50.0179 31.478 50.0345 31.3447 50.0679C31.0446 50.1345 30.728 50.2012 30.428 50.2679C30.3613 50.2845 30.3113 50.2845 30.2446 50.3012C30.1446 50.3179 30.028 50.3345 29.928 50.3512C29.778 50.3679 29.6446 50.4012 29.4946 50.4179C29.428 50.4345 29.3613 50.4345 29.2947 50.4512C29.2113 50.4679 29.1113 50.4845 29.0113 50.4845C28.7446 50.5179 28.4613 50.5512 28.1946 50.5845C28.1113 50.6012 28.0113 50.6012 27.928 50.6179H27.9113C27.7946 50.6345 27.678 50.6345 27.5613 50.6512C27.4446 50.6679 27.328 50.6679 27.2113 50.6679C27.1446 50.6679 27.0613 50.6845 26.9946 50.6845C26.8613 50.6845 26.7446 50.7012 26.628 50.7012C26.4613 50.7012 26.3113 50.7179 26.1446 50.7179C25.978 50.7179 25.828 50.7179 25.6613 50.7179C25.5446 50.7179 25.428 50.7179 25.3113 50.7179C18.2946 50.6179 11.9613 47.6345 7.46131 42.9012C7.46131 42.9012 7.46131 42.8845 7.44464 42.8845C7.96131 41.8679 9.87798 40.0345 11.878 38.5179C14.4113 36.6012 17.9946 35.4179 17.9946 35.4179C17.9946 35.4179 20.3446 35.0345 29.0613 36.8512C35.7113 38.2512 38.5447 43.9345 39.5113 46.5512Z" fill="#F7D3B5"/>
<path d="M30.9113 41.4679C30.5613 43.1845 28.2947 44.2012 24.478 42.6679C19.7947 40.7679 17.9946 35.4179 17.9946 35.4179C17.7446 31.5845 17.1613 28.3012 17.1613 28.3012C22.578 27.8345 28.978 34.1679 28.978 34.1679L29.7113 37.3012C29.778 37.5679 29.9113 37.8012 30.1113 37.9679C30.4613 38.5679 31.1447 40.3679 30.9113 41.4679Z" fill="#F7D3B5"/>
<path d="M30.1113 37.9845C26.9279 37.8178 24.5779 37.3511 22.0613 32.8345C24.1946 34.7178 26.7113 35.4345 29.3613 35.7678L29.7113 37.3011C29.778 37.5845 29.9113 37.8178 30.1113 37.9845Z" fill="#EFBDA5"/>
<path d="M36.6946 17.9011C36.9946 19.3011 37.1446 20.4345 36.328 24.1678C35.5113 27.9011 37.078 31.6345 33.1446 35.0512C30.4946 37.3512 25.8613 37.7845 22.1613 35.2678C20.9113 34.4178 19.7613 33.2345 18.828 31.6845C18.0946 30.4678 17.2446 29.3178 16.2946 28.2678C14.978 26.8345 13.3946 23.9511 14.178 18.8511C15.4446 10.5511 23.6613 9.60113 28.5113 10.5178C33.3613 11.4345 35.878 14.2011 36.6946 17.9011Z" fill="#F7D3B5"/>
<path d="M20.7446 24.4178C20.7446 24.4178 20.2279 21.9178 17.7946 22.2178C15.6946 22.4845 14.9613 27.5178 19.7279 28.9178" fill="#F7D3B5"/>
<path d="M19.578 26.6345C19.578 26.6345 18.978 26.2512 19.0446 25.5845C19.1446 24.8011 19.0446 24.3178 18.678 24.1678C17.7613 23.7845 17.578 24.8511 17.6113 24.9845" stroke="#423232" stroke-width="0.518408" stroke-miterlimit="10" stroke-linecap="round" stroke-linejoin="round"/>
<path d="M32.2946 28.2512C32.2946 28.2512 32.9279 28.2845 33.5279 27.5678C33.8613 27.1678 34.1446 26.6678 33.9613 26.5178C33.7779 26.3512 30.7613 26.8178 30.5613 27.2178C30.3613 27.6178 31.5279 28.2512 32.2946 28.2512Z" fill="#EFBDA5"/>
<path d="M32.7947 22.6512C32.7947 22.6512 32.828 24.2345 33.8447 26.0012C34.2947 26.7845 33.6113 28.0679 32.128 28.2845" stroke="#423232" stroke-width="0.518408" stroke-miterlimit="10" stroke-linecap="round" stroke-linejoin="round"/>
<path opacity="0.42" d="M23.7613 29.1012C24.7094 29.1012 25.478 28.4669 25.478 27.6845C25.478 26.9021 24.7094 26.2678 23.7613 26.2678C22.8132 26.2678 22.0446 26.9021 22.0446 27.6845C22.0446 28.4669 22.8132 29.1012 23.7613 29.1012Z" fill="#ED938A"/>
<path opacity="0.42" d="M36.0613 26.3011C36.0113 27.2345 36.028 28.1511 35.9613 29.0678C35.228 28.9011 34.6946 28.3511 34.6946 27.7011C34.6946 27.0011 35.278 26.4345 36.0613 26.3011Z" fill="#ED938A"/>
<path d="M35.343 40.0667C35.343 40.0667 32.7596 37.65 30.2096 37.0667C30.2096 37.0667 32.3596 40.5667 26.043 39.9167C21.143 39.4167 17.9596 35.3167 17.9596 35.3167C17.9596 35.3167 14.7429 36.2167 12.1429 38.2C12.1429 38.2 12.4929 43.3167 18.343 45.85C24.193 48.3833 32.343 47.1333 34.2763 45.5C36.2096 43.8667 35.8263 40.6 35.343 40.0667Z" fill="#444444"/>
<path d="M10.7096 39.3167C10.7096 39.3167 5.8096 41.1 4.04293 46.1833C2.27626 51.2667 3.99293 58.8333 3.99293 58.8333H42.993C42.993 58.8333 43.3096 50.05 40.6096 45.1667C39.9763 44.0333 38.2263 42.2 36.9763 41.6167C36.9763 41.6167 37.443 45.9167 30.0596 46.3C22.6763 46.6833 13.7929 44.3333 13.5763 42.9667C13.3763 41.5667 10.7096 39.3167 10.7096 39.3167Z" fill="white"/>
<path d="M38.743 59.1333C28.2763 63.9667 11.0429 59.6 11.0429 59.6C11.0429 59.6 10.6929 55.35 11.9596 47.7C12.0096 47.35 12.0596 47 12.0929 46.6833C12.4596 43.2167 11.6096 40.8333 10.7096 39.3333C10.7096 38.95 11.1096 38.6833 11.5596 38.3C11.7429 38.15 11.9929 38.1333 12.1263 38.2333C12.3596 38.5667 12.5763 38.9 12.7596 39.25C14.6263 42.7 18.2929 44.5333 22.1929 44.9167C27.5096 45.45 29.7263 45.3667 32.3763 44.7833C34.9263 44.2167 36.0763 42.7167 35.3596 40.2167C35.343 40.1833 35.343 40.1333 35.3263 40.0833C35.7763 40.05 36.8263 40.9167 37.1763 42.2C37.543 43.7833 37.8263 45.5667 38.043 47.35C38.7596 53.1667 38.743 59.1333 38.743 59.1333Z" fill="#444444"/>
<path d="M14.593 36.6667C14.593 36.6667 17.8263 43.1834 23.4263 46.75C23.943 47.0834 24.6263 46.95 24.993 46.4667L28.0596 42.4667L31.693 45.7167C32.1096 46.1 32.793 45.8834 32.9263 45.3334C33.243 43.9334 33.493 41.3334 32.3096 37.8667" stroke="white" stroke-width="0.518408" stroke-miterlimit="10" stroke-linecap="round" stroke-linejoin="round"/>
<path d="M28.8596 56.8333C29.293 51.85 28.0596 42.4833 28.0596 42.4833" stroke="white" stroke-width="0.518408" stroke-miterlimit="10" stroke-linecap="round" stroke-linejoin="round"/>
<path d="M30.6596 47.9667C30.991 47.9667 31.2596 47.698 31.2596 47.3667C31.2596 47.0353 30.991 46.7667 30.6596 46.7667C30.3283 46.7667 30.0596 47.0353 30.0596 47.3667C30.0596 47.698 30.3283 47.9667 30.6596 47.9667Z" fill="white"/>
<path d="M30.9262 50.9667C31.2576 50.9667 31.5262 50.698 31.5262 50.3667C31.5262 50.0353 31.2576 49.7667 30.9262 49.7667C30.5949 49.7667 30.3262 50.0353 30.3262 50.3667C30.3262 50.698 30.5949 50.9667 30.9262 50.9667Z" fill="white"/>
<path d="M27.393 39.6167C27.393 39.6167 24.843 38.0667 23.793 38.3333C22.7263 38.6 23.093 42.4333 23.7763 43.05C24.4596 43.6667 27.3763 41.7 27.5596 41.5333C27.743 41.3667 27.6596 39.8833 27.393 39.6167Z" fill="white"/>
<path d="M28.3596 39.6333C28.3596 39.6333 29.3596 38.0667 30.3763 37.8667C31.3763 37.6667 31.843 41.9 31.393 42.3C30.943 42.6833 28.843 41.85 28.6096 41.5833C28.3596 41.3333 28.2263 40.15 28.3596 39.6333Z" fill="white"/>
<path d="M29.4263 40.9667C29.4763 40.05 28.8263 39.2667 27.9596 39.1834C27.093 39.1 26.343 39.7667 26.2596 40.6834C26.193 41.6167 26.843 42.4334 27.7263 42.5167C28.6263 42.5834 29.3763 41.9 29.4263 40.9667Z" fill="#444444"/>
<path d="M26.2596 40.6834C26.2763 41.3334 26.6263 41.9167 27.1596 42.2C27.6763 42.4834 28.343 42.4 28.7763 42C29.2096 41.6167 29.3763 40.9667 29.2263 40.4C29.0763 39.8334 28.6096 39.3167 27.9596 39.1833C28.1263 39.1833 28.2763 39.2167 28.443 39.2667C28.593 39.3167 28.743 39.4 28.8763 39.5C29.143 39.7 29.3596 40 29.4596 40.3167C29.5763 40.65 29.593 41 29.5096 41.35C29.4596 41.5167 29.393 41.6834 29.3096 41.8334C29.2263 41.9834 29.1096 42.1167 28.9763 42.25C28.7096 42.4834 28.3763 42.65 28.0263 42.6667C27.6763 42.7 27.3096 42.6167 27.0263 42.4167C26.7263 42.2334 26.5096 41.95 26.3763 41.65C26.243 41.35 26.2096 41 26.2596 40.6834Z" fill="white"/>
<path d="M27.4232 23.202C27.4232 23.2186 27.4232 23.2353 27.4232 23.2353L27.4065 23.702C27.3898 24.102 27.0565 24.402 26.6565 24.3853C26.2565 24.3686 25.9565 24.0186 25.9898 23.6353L26.0065 23.1686C26.0065 23.0853 26.0398 22.9853 26.0732 22.9186L27.4065 22.9853C27.4065 23.052 27.4232 23.1186 27.4232 23.202Z" fill="#423232"/>
<path d="M34.3897 23.5686L34.373 24.002C34.3564 24.3686 34.0397 24.652 33.673 24.6353C33.3064 24.6186 33.023 24.3019 33.0397 23.9353L33.0564 23.502C33.0564 23.4186 33.073 23.3353 33.1064 23.2686L34.3564 23.3186C34.3897 23.4019 34.3897 23.4853 34.3897 23.5686Z" fill="#423232"/>
<path d="M29.0897 20.9186C29.4564 20.9686 29.7397 20.5853 29.6064 20.2186C29.5397 20.0186 29.4231 19.8353 29.2397 19.7186C28.6731 19.3686 26.5564 19.3353 25.4397 20.1353C24.4564 20.8686 27.4231 20.6853 29.0897 20.9186Z" fill="#423232"/>
<path d="M33.7064 21.102C33.4064 21.102 33.2231 20.7186 33.3731 20.402C33.4564 20.2353 33.573 20.0853 33.7397 20.002C34.2564 19.752 35.6397 19.902 36.2564 20.752C36.8064 21.502 35.0897 21.0853 33.7064 21.102Z" fill="#423232"/>
<path d="M28.5064 23.0186L27.3897 22.9686L26.0564 22.9186L25.7564 22.902" stroke="#423232" stroke-width="0.518408" stroke-miterlimit="10" stroke-linecap="round" stroke-linejoin="round"/>
<path d="M35.0898 23.3519L34.3565 23.3186L33.1065 23.2686H33.0565" stroke="#423232" stroke-width="0.518408" stroke-miterlimit="10" stroke-linecap="round" stroke-linejoin="round"/>
<path d="M31.9315 30.3026C31.4995 30.4927 31.2921 30.1125 30.6182 30.4408C30.1343 30.6655 29.8751 30.7346 29.2876 30.389C28.9074 30.147 28.4409 30.4926 27.9916 29.836" stroke="#423232" stroke-width="0.518408" stroke-miterlimit="10" stroke-linecap="round" stroke-linejoin="round"/>
<path d="M36.944 17.6278C36.894 17.3778 36.8273 17.1112 36.744 16.8612C36.6606 16.6112 36.4606 16.3945 36.194 16.3445C35.3273 16.1945 34.494 14.6945 33.294 14.5278C29.4773 14.0112 26.9273 14.3278 23.344 15.7278C19.644 17.1612 23.6106 22.3445 20.9606 24.0445C20.8273 23.5778 20.1773 21.6778 18.044 21.9445C16.0273 22.1945 15.2606 26.8612 19.4273 28.4612C17.6106 31.4279 17.744 30.2445 16.4106 28.6445C15.0773 27.0445 12.4106 22.8945 14.2106 16.8278C16.0106 10.7612 24.1606 7.5945 31.744 10.6778C33.044 11.2112 33.8273 12.5278 34.9606 12.7445C45.5107 14.7612 37.194 18.8278 36.944 17.6278Z" fill="#423232"/>
<path d="M26.694 14.4778C26.694 14.4778 25.2773 14.0612 24.4273 16.2778C23.5773 18.4945 20.6106 21.5445 18.144 17.9945C15.6773 14.4612 19.3773 11.6278 23.2273 12.7778C27.0773 13.9278 26.644 13.0612 26.694 14.4778Z" fill="#423232"/>
<path d="M29.144 12.8612C29.144 12.8612 32.894 15.2446 35.3607 14.3112C36.9107 13.7279 38.6607 11.5779 37.444 9.97788C35.994 8.06121 31.5107 9.51122 29.0107 8.71122C25.2607 7.51121 19.444 6.71121 16.7106 11.2112C16.0273 12.3446 15.4106 13.4946 14.444 14.3946C13.444 15.3279 12.444 16.8446 12.3606 19.2112C12.2106 23.9279 15.9106 28.0279 15.9106 28.0279C15.9106 28.0279 13.7106 19.9612 17.8606 18.7612C22.0107 17.5612 23.1607 13.4112 25.9107 13.4112C28.6607 13.4112 27.3773 10.3112 29.144 12.8612Z" fill="#423232"/>
<path d="M32.794 14.9779C32.794 14.9779 35.8107 18.7445 38.0774 18.5279C40.344 18.3112 42.894 13.4445 36.6607 11.7779C30.4274 10.1112 32.794 14.9779 32.794 14.9779Z" fill="#423232"/>
<path d="M26.694 14.4778C26.694 14.4778 28.6774 19.3778 33.944 19.9612C39.2274 20.5612 41.3607 10.8945 33.294 9.97783C25.2273 9.06116 26.694 14.4778 26.694 14.4778Z" fill="#423232"/>
<path d="M22.4773 12.1779C22.4773 12.1779 23.7107 17.7779 26.3107 18.0279C28.9107 18.2779 28.2107 11.0445 24.8107 10.5445C21.4107 10.0445 22.4773 12.1779 22.4773 12.1779Z" fill="#423232"/>
<path d="M34.2735 25.8199C33.8235 25.2699 33.2402 24.8865 32.5402 24.8699C31.8069 24.8532 30.6569 25.0199 29.5069 25.9365C28.0069 27.1365 25.0069 26.9532 23.8235 26.8365C23.4902 26.8032 23.1735 26.9699 23.0235 27.2699C22.6902 27.9365 22.2402 29.3199 22.4569 31.5532C22.7402 34.6032 25.2235 37.3699 28.7235 37.1365C33.3235 36.8532 36.0069 33.1532 36.1735 28.2032C36.1402 26.8365 35.3235 27.1199 34.2735 25.8199Z" fill="white"/>
<path d="M28.1235 26.8365C28.1235 26.8365 35.1402 30.0032 35.7402 27.7032" stroke="#EDF3F4" stroke-width="0.518408" stroke-miterlimit="10" stroke-linecap="round" stroke-linejoin="round"/>
<path d="M25.2902 29.1032C25.2902 29.1032 32.3736 33.1532 35.5569 30.9532" stroke="#EDF3F4" stroke-width="0.518408" stroke-miterlimit="10" stroke-linecap="round" stroke-linejoin="round"/>
<path d="M25.0402 31.9698C25.0402 31.9698 28.6902 35.2532 33.9402 34.0699" stroke="#EDF3F4" stroke-width="0.518408" stroke-miterlimit="10" stroke-linecap="round" stroke-linejoin="round"/>
<path d="M26.0069 27.1199C26.0069 27.1199 25.3069 28.0865 25.0235 30.6365C24.6902 33.7032 26.1402 36.2532 26.1402 36.2532" stroke="#EDF3F4" stroke-width="0.518408" stroke-miterlimit="10" stroke-linecap="round" stroke-linejoin="round"/>
<path d="M23.6902 27.2532C23.6902 27.2532 21.7735 25.9199 20.4235 23.6199" stroke="white" stroke-width="0.518408" stroke-miterlimit="10" stroke-linecap="round" stroke-linejoin="round"/>
<path d="M19.4402 28.8032C19.8235 30.0532 20.7735 32.0866 23.1735 33.9199" stroke="white" stroke-width="0.518408" stroke-miterlimit="10" stroke-linecap="round" stroke-linejoin="round"/>
</g>
</g>
</svg>
