<svg width="214" height="208" viewBox="0 0 214 208" fill="none" xmlns="http://www.w3.org/2000/svg">
<path d="M106.347 206.983C59.8407 206.983 22.2116 170.591 22.2116 125.735C22.2116 80.825 59.8965 44.4872 106.347 44.4872C152.853 44.4872 190.482 80.8789 190.482 125.735C190.537 170.645 152.853 206.983 106.347 206.983Z" fill="#B5E2DC"/>
<mask id="mask0_17_1803" style="mask-type:alpha" maskUnits="userSpaceOnUse" x="14" y="0" width="186" height="208">
<path d="M107.213 207.5C56.0177 207.5 14.5946 161.141 14.5946 104C14.5946 46.79 56.0792 0.5 107.213 0.5C158.408 0.5 199.831 46.8587 199.831 104C199.892 161.21 158.408 207.5 107.213 207.5Z" fill="#F7C0B5"/>
</mask>
<g mask="url(#mask0_17_1803)">
<path d="M166.375 191.153C165.878 191.498 165.31 191.843 164.813 192.188C164.245 192.533 163.748 192.878 163.18 193.154C162.683 193.43 162.257 193.706 161.76 193.982C161.689 194.051 161.618 194.051 161.547 194.12C159.914 195.086 158.21 195.983 156.506 196.811C156.009 197.087 155.441 197.363 154.944 197.57C154.944 197.57 154.873 197.639 154.802 197.639C154.234 197.915 153.666 198.191 153.098 198.467C151.962 199.019 150.755 199.502 149.619 199.985C149.051 200.261 148.412 200.468 147.844 200.675C147.276 200.882 146.637 201.158 146.069 201.365C145.501 201.572 144.862 201.848 144.294 202.055C144.294 202.055 144.294 202.055 144.223 202.055C143.655 202.262 143.016 202.469 142.448 202.676C141.17 203.09 139.821 203.504 138.543 203.918C138.117 204.056 137.62 204.194 137.194 204.332C135.845 204.746 134.496 205.091 133.147 205.367C132.65 205.505 132.153 205.574 131.585 205.712C130.307 205.988 128.958 206.264 127.68 206.54C127.396 206.609 127.183 206.609 126.899 206.678C126.473 206.747 125.976 206.816 125.55 206.885C124.911 206.954 124.343 207.092 123.704 207.161C123.42 207.23 123.136 207.23 122.852 207.299C122.497 207.368 122.071 207.437 121.645 207.437C120.509 207.575 119.302 207.713 118.166 207.851C117.811 207.92 117.385 207.92 117.03 207.989H116.959C116.462 208.058 115.965 208.058 115.468 208.127C114.971 208.196 114.474 208.196 113.977 208.196C113.693 208.196 113.338 208.265 113.054 208.265C112.486 208.265 111.989 208.334 111.492 208.334C110.782 208.334 110.143 208.403 109.433 208.403C108.723 208.403 108.084 208.403 107.374 208.403C106.877 208.403 106.38 208.403 105.883 208.403C75.992 207.989 49.012 195.638 29.8421 176.042C29.8421 176.042 29.8421 175.973 29.7711 175.973C31.9721 171.764 40.1371 164.174 48.657 157.895C59.449 149.96 74.714 145.061 74.714 145.061C74.714 145.061 84.725 143.474 121.858 150.995C150.187 156.791 162.257 180.32 166.375 191.153Z" fill="#AD827B"/>
<path d="M129.739 170.108C128.248 177.215 118.592 181.424 102.333 175.076C82.382 167.21 74.714 145.061 74.714 145.061C73.649 129.191 71.164 115.598 71.164 115.598C94.239 113.666 121.503 139.886 121.503 139.886L124.627 152.858C124.911 153.962 125.479 154.928 126.331 155.618C127.822 158.102 130.733 165.554 129.739 170.108Z" fill="#AD827B"/>
<path d="M126.331 155.687C112.77 154.997 102.759 153.065 92.0379 134.366C101.126 142.163 111.847 145.13 123.136 146.51L124.627 152.858C124.911 154.031 125.479 154.997 126.331 155.687Z" fill="#8E5650"/>
<path d="M154.376 72.5416C155.654 78.3376 156.293 83.0296 152.814 98.4856C149.335 113.942 156.009 129.398 139.253 143.543C127.964 153.065 108.226 154.859 92.4639 144.44C87.1389 140.921 82.24 136.022 78.264 129.605C75.14 124.568 71.519 119.807 67.472 115.46C61.863 109.526 55.118 97.5886 58.455 76.4746C63.851 42.1126 98.8539 38.1795 119.515 41.9746C140.176 45.7696 150.897 57.2236 154.376 72.5416Z" fill="#AD827B"/>
<path d="M86.4289 99.5206C86.4289 99.5206 84.2279 89.1706 73.8619 90.4126C64.916 91.5166 61.792 112.355 82.0979 118.151" fill="#AD827B"/>
<path d="M81.459 108.698C81.459 108.698 78.903 107.111 79.187 104.351C79.613 101.108 79.187 99.1066 77.625 98.4856C73.72 96.8986 72.939 101.315 73.081 101.867" stroke="#423232" stroke-width="2.07363" stroke-miterlimit="10" stroke-linecap="round" stroke-linejoin="round"/>
<path d="M135.632 115.391C135.632 115.391 138.33 115.529 140.886 112.562C142.306 110.906 143.513 108.836 142.732 108.215C141.951 107.525 129.1 109.457 128.248 111.113C127.396 112.769 132.366 115.391 135.632 115.391Z" fill="#8E605C"/>
<path d="M137.762 92.2066C137.762 92.2066 137.904 98.7616 142.235 106.076C144.152 109.319 141.241 114.632 134.922 115.529" stroke="#423232" stroke-width="2.07363" stroke-miterlimit="10" stroke-linecap="round" stroke-linejoin="round"/>
<path d="M81.4237 151.412C81.4237 151.412 80.0037 142.856 77.5897 143.339C66.3717 145.823 33.6408 155.069 22.2098 179.081C11.4179 201.92 10.4239 233.936 10.4239 233.936H189.982C189.982 233.936 186.716 185.291 168.399 170.387C157.536 161.486 147.738 156.035 139.715 152.723C129.065 148.307 118.344 157.553 115.291 157.346C109.824 157.07 81.4237 151.412 81.4237 151.412Z" fill="#544D4D"/>
<path d="M45.5688 233.936L42.3738 208.337" stroke="white" stroke-width="2.07363" stroke-miterlimit="10" stroke-linecap="round" stroke-linejoin="round"/>
<path d="M169.535 199.643C169.535 199.643 167.404 204.68 168.043 209.717C168.682 214.754 170.528 222.137 167.901 233.936" stroke="white" stroke-width="2.07363" stroke-miterlimit="10" stroke-linecap="round" stroke-linejoin="round"/>
<path d="M73.2587 136.37C73.2587 136.37 68.1467 138.164 67.2237 139.13C66.3007 140.096 65.8747 140.717 65.8747 140.717C65.8747 140.717 63.3187 143.477 61.8987 150.17C61.2597 152.999 62.7507 157.622 61.6147 161.279C58.3487 171.422 73.8267 187.016 99.3866 196.193C118.77 203.162 140.141 196.814 143.123 183.704C145.963 171.077 144.259 165.35 142.91 161.279C140.212 153.413 139.36 151.205 135.739 148.169C133.467 146.237 131.905 150.239 123.385 152.516C120.758 153.206 117.563 153.758 113.445 153.896C88.9497 154.793 78.5837 141.269 74.8917 137.405C73.9687 136.646 73.5427 136.232 73.2587 136.37Z" fill="white"/>
<path d="M123.172 152.447C120.545 153.137 117.35 153.689 113.232 153.827C88.7367 154.724 78.3707 141.2 74.6787 137.336" stroke="#CCCCCC" stroke-width="2.07363" stroke-miterlimit="10" stroke-linecap="round" stroke-linejoin="round"/>
<path d="M136.165 145.685C142.626 150.929 153.844 164.66 151.146 195.365C149.797 210.545 157.394 216.824 155.69 219.239C155.406 219.653 155.051 219.86 154.767 219.929C153.56 220.205 152.424 220.757 151.856 221.861C151.643 222.344 151.288 222.689 150.791 222.965C150.365 223.241 149.868 223.241 149.442 223.172C147.951 222.827 146.318 223.655 145.395 224.897C145.04 225.38 144.614 225.725 143.975 225.863C143.549 226.001 143.123 225.932 142.839 225.863C141.632 225.518 140.283 225.863 139.218 226.691C138.934 226.898 138.65 227.036 138.295 227.036C137.656 227.036 137.159 226.76 136.733 226.346C135.739 225.449 134.319 225.104 132.899 225.587C132.757 225.656 132.686 225.656 132.544 225.656C131.55 225.794 130.769 225.035 130.201 223.724C129.633 222.482 128.284 221.93 126.864 222.068C126.58 222.068 126.296 222.068 125.941 221.999C123.172 221.378 119.622 217.652 119.551 213.098C119.48 208.613 120.545 200.816 122.32 197.159C127.787 185.912 129.775 177.839 130.059 171.767C130.627 160.658 123.385 150.722 124.095 150.515C131.337 149.066 136.165 145.685 136.165 145.685Z" fill="white"/>
<path d="M122.249 197.159C127.716 185.912 129.704 177.839 129.988 171.767C130.414 163.211 126.154 155.276 124.592 152.033" stroke="#CCCCCC" stroke-width="2.07363" stroke-miterlimit="10" stroke-linecap="round" stroke-linejoin="round"/>
<path d="M119.48 213.098C119.409 208.613 120.474 200.816 122.249 197.159C127.716 185.912 129.704 177.839 129.988 171.767" stroke="#CCCCCC" stroke-width="2.07363" stroke-miterlimit="10" stroke-linecap="round" stroke-linejoin="round"/>
<path d="M125.799 189.017C125.799 189.017 104.215 191.087 90.0148 180.668" stroke="#CCCCCC" stroke-width="2.07363" stroke-miterlimit="10" stroke-linecap="round" stroke-linejoin="round"/>
<path d="M131.621 152.654C133.609 155.483 135.881 159.623 136.449 164.729" stroke="#CCCCCC" stroke-width="2.07363" stroke-miterlimit="10" stroke-linecap="round" stroke-linejoin="round"/>
<path d="M140.638 225.863C140.638 225.863 137.017 218.411 140.638 202.196C144.472 184.946 142.697 176.459 142.697 176.459" stroke="#CCCCCC" stroke-width="2.07363" stroke-miterlimit="10" stroke-linecap="round" stroke-linejoin="round"/>
<path d="M61.7568 153.62C61.7568 153.62 66.5138 163.142 72.2648 167.558" stroke="#CCCCCC" stroke-width="2.07363" stroke-miterlimit="10" stroke-linecap="round" stroke-linejoin="round"/>
<path d="M129.42 176.459C129.42 176.459 115.93 177.356 106.416 173.768" stroke="#CCCCCC" stroke-width="2.07363" stroke-miterlimit="10" stroke-linecap="round" stroke-linejoin="round"/>
<path d="M112.155 99.1343C110.451 99.0653 109.173 97.6853 109.315 96.0293L109.386 94.0973C109.457 92.4413 110.877 91.1993 112.581 91.3373C114.285 91.4063 115.563 92.7863 115.421 94.4423L115.35 96.3743C115.279 97.9613 113.859 99.2033 112.155 99.1343Z" fill="#423232"/>
<path d="M142.045 100.169C140.483 100.1 139.276 98.7892 139.347 97.2712L139.418 95.4772C139.489 93.9592 140.838 92.7862 142.4 92.8552C143.962 92.9242 145.169 94.2352 145.098 95.7532L145.027 97.5472C144.956 99.0652 143.607 100.238 142.045 100.169Z" fill="#423232"/>
<path d="M119.042 95.1322C119.042 95.1322 117.196 92.5792 114.001 92.0962C111.374 91.6822 108.463 92.9242 108.037 94.3732" stroke="#423232" stroke-width="2.07363" stroke-miterlimit="10" stroke-linecap="round" stroke-linejoin="round"/>
<path d="M139.987 95.7533C139.987 95.7533 139.987 93.5453 143.253 93.5453C145.951 93.5453 147.087 95.9603 147.087 95.9603" stroke="#423232" stroke-width="2.07363" stroke-miterlimit="10" stroke-linecap="round" stroke-linejoin="round"/>
<path d="M121.952 84.0231C123.443 84.5061 124.934 83.1951 124.65 81.6081C124.508 80.7801 124.153 79.9521 123.443 79.3311C121.313 77.4681 112.509 75.8121 107.184 78.2271C102.498 80.4351 115.136 81.8151 121.952 84.0231Z" fill="#423232"/>
<path d="M143.181 85.1272C141.974 85.5412 140.696 84.2992 140.909 82.8502C140.98 82.0912 141.264 81.3322 141.832 80.7802C143.536 79.1242 149.358 77.8132 153.05 80.3662C156.245 82.5052 148.719 83.1262 143.181 85.1272Z" fill="#423232"/>
<path d="M130.685 123.41C130.754 124.516 129.924 126.451 128.404 127.834C120.593 123.064 117.068 125.553 117.068 125.553C114.303 121.336 114.925 115.599 121.63 119.954C126.33 122.926 129.164 123.41 130.685 123.41Z" fill="#423232"/>
<path d="M128.404 127.834C126.745 129.285 124.256 130.184 120.87 128.801C119.28 128.179 118.036 126.935 117.068 125.553C117.068 125.553 120.593 123.064 128.404 127.834Z" fill="#FE9DAB"/>
<path d="M131.998 123.133C131.998 123.133 129.095 124.723 121.63 119.954C112.713 114.217 114.51 126.244 120.8 128.801C127.367 131.497 130.754 125.622 130.685 123.41" stroke="#423232" stroke-width="2.07363" stroke-miterlimit="10" stroke-linecap="round" stroke-linejoin="round"/>
<path d="M117.068 125.553C117.068 125.553 120.593 123.064 128.404 127.834" stroke="#423232" stroke-width="2.07363" stroke-miterlimit="10" stroke-linecap="round" stroke-linejoin="round"/>
<path d="M155.154 76.6394C155.012 75.8114 154.799 74.9834 154.657 74.0864C153.876 70.7054 152.74 67.5314 151.249 64.5644L142.871 67.9454C140.457 68.9114 137.759 69.1874 135.132 68.7734L101.904 63.1844C97.8567 62.4944 93.9518 64.7714 92.6028 68.4974C91.6088 71.1884 90.4018 74.2934 89.1238 76.9154C79.0418 78.5024 69.2438 76.4324 59.9428 72.5684C59.2328 72.2924 58.5938 72.0164 57.8838 71.6714C59.1618 65.3924 54.2628 39.1724 60.3688 32.3414C62.4278 30.0643 64.4868 29.7883 66.4748 30.4783C71.0898 32.0653 76.2728 31.1683 79.6098 27.7183C82.3078 25.0273 85.7158 22.6813 89.9048 22.6123C91.9638 22.5433 93.5968 22.9573 94.9458 23.7163C99.2058 25.9933 104.389 25.2343 108.223 22.4053C109.43 21.5773 110.708 21.0253 112.128 21.0253C114.187 21.0253 116.033 21.8533 117.524 22.9573C120.364 25.0273 124.127 25.5103 127.606 24.8203C127.819 24.7513 128.032 24.7513 128.245 24.7513C129.097 24.7513 130.02 24.9583 130.801 25.3033C133.783 26.5453 137.12 26.6833 140.102 25.4413C141.522 24.8893 143.226 24.8893 144.93 26.4763C147.06 28.4773 149.829 29.7883 152.811 29.8573C153.592 29.8573 154.586 30.2023 155.793 30.9613C156.361 31.3753 156.858 32.1343 157.213 33.1694C157.781 34.7564 159.13 35.9294 160.834 36.4124C161.899 36.7574 162.68 37.7924 162.893 40.1384C163.603 47.5904 156.929 70.6364 155.154 76.6394Z" fill="#423232"/>
<path d="M160.692 36.3434C157.568 37.4474 157 36.8264 153.45 35.9294C149.9 35.0324 146.776 38.8964 144.22 34.8944C140.528 29.0293 133.712 33.0313 132.363 31.9273C131.014 30.8233 126.825 27.1663 120.932 31.0303C117.027 33.5834 112.057 29.0293 105.809 29.0293C93.3128 29.0293 91.0408 37.9304 86.7098 33.8594C82.3789 29.8573 77.7639 32.5483 71.3739 33.6523C64.9839 34.7564 61.7179 31.0303 61.7179 31.0303C63.2799 29.9953 64.8419 29.9953 66.3329 30.4783C70.9479 32.0653 76.1309 31.1683 79.4679 27.7183C82.1659 25.0273 85.5738 22.6813 89.7628 22.6123C91.8218 22.5433 93.4548 22.9573 94.8038 23.7163C99.0638 25.9933 104.247 25.2343 108.081 22.4053C109.288 21.5773 110.566 21.0253 111.986 21.0253C114.045 21.0253 115.891 21.8533 117.382 22.9573C120.222 25.0273 123.985 25.5103 127.464 24.8203C127.677 24.7513 127.89 24.7513 128.103 24.7513C128.955 24.7513 129.878 24.9583 130.659 25.3033C133.641 26.5453 136.978 26.6833 139.96 25.4413C141.38 24.8893 143.084 24.8893 144.788 26.4763C146.918 28.4773 149.687 29.7883 152.669 29.8573C153.45 29.8573 154.444 30.2023 155.651 30.9613C156.219 31.3753 156.716 32.1343 157.071 33.1694C157.639 34.6874 159.059 35.8604 160.692 36.3434Z" fill="#5E4949"/>
<path d="M86.1418 99.2714C84.9348 96.3734 81.7398 91.0604 74.2139 92.0264C66.6879 92.9234 63.2799 107.758 74.3559 115.9C77.5509 118.177 80.8878 119.281 80.8878 119.281L72.2969 122.179C72.2969 122.179 56.6769 113.554 56.1089 93.8204C55.8249 84.6434 56.8189 77.1914 57.8839 71.7404C67.7529 76.1564 78.2608 78.7094 89.1238 76.9844C87.9168 79.3994 86.5678 81.4004 85.2898 82.3664C81.3848 85.1264 86.6388 92.5094 86.1418 99.2714Z" fill="#99807F"/>
<path d="M86.2838 81.4004C85.9288 81.7454 85.6448 82.0904 85.2898 82.2974C84.4378 82.9184 84.0118 83.8154 83.8698 84.8504C79.4678 85.0574 73.1488 83.2634 70.9478 82.5734C70.4508 82.4354 70.1668 82.0214 70.1668 81.5384V81.1934C70.1668 80.4344 70.8768 79.9514 71.5868 80.0894C76.4858 81.4004 85.9288 81.4004 86.2838 81.4004Z" fill="#423232"/>
<path d="M84.7928 90.6465C80.8879 90.3705 77.1249 89.6805 75.4209 89.3355C74.8529 89.1975 74.4979 88.7835 74.4979 88.2315C74.4979 87.5415 75.1369 87.0585 75.8469 87.1275C79.0419 87.6105 82.4498 87.5415 84.0828 87.4725C84.2248 88.4385 84.5088 89.4735 84.7928 90.6465Z" fill="#423232"/>
<path d="M78.2738 101.791C78.2738 101.791 72.5938 100.963 73.0198 108.691C73.2328 112.624 73.2328 114.763 73.1618 115.867C73.0908 116.626 73.5878 117.316 74.2978 117.592C75.1498 117.937 76.0728 117.592 76.4988 116.764C77.1378 115.66 77.8478 114.142 77.8478 112.9C77.8478 110.83 80.1198 108.967 80.1198 108.967C80.1198 108.967 78.0608 107.242 78.2738 101.791Z" fill="white"/>
<path d="M95.4557 234.824C94.8877 234.203 72.5937 197.15 75.9307 183.212C78.2027 173.621 75.2207 162.581 72.5937 152.852C71.5287 148.85 70.5347 145.124 69.9667 141.812C68.9727 136.084 69.6827 130.633 72.0967 125.596C74.7237 119.938 74.2977 115.039 74.2977 114.97L75.7177 114.832C75.7177 115.039 76.1437 120.214 73.3747 126.148C71.1027 130.909 70.4637 136.154 71.3867 141.605C71.9547 144.848 72.9487 148.574 74.0137 152.576C76.7117 162.443 79.6937 173.69 77.3507 183.626C74.2267 196.874 96.4497 233.927 96.5917 234.065L95.4557 234.824Z" fill="white"/>
<path d="M73.2328 112.693C73.3038 114.211 73.2328 115.246 73.2328 115.867C73.1618 116.626 73.6588 117.316 74.3688 117.592C75.2208 117.937 76.1438 117.592 76.5698 116.764C77.2088 115.66 77.9188 114.142 77.9188 112.9C77.9188 112.831 77.9188 112.693 77.9188 112.624C76.4278 113.176 74.7238 113.59 73.2328 112.693Z" fill="#E5E5E5"/>
<path d="M140.044 158.579C139.547 161.753 139.476 166.79 139.334 172.655C139.121 183.971 132.234 228.062 128.897 235.031L127.619 234.479C130.814 227.717 137.701 183.833 137.914 172.655C138.056 166.79 138.127 161.684 138.624 158.372C139.689 151.403 138.908 146.159 138.482 143.951C138.695 143.744 138.908 143.606 139.121 143.399C139.334 143.261 139.476 143.054 139.689 142.916C140.115 144.71 141.322 150.437 140.044 158.579Z" fill="white"/>
</g>
</svg>
