<svg width="186" height="208" viewBox="0 0 186 208" fill="none" xmlns="http://www.w3.org/2000/svg">
<mask id="mask0_17_1805" style="mask-type:alpha" maskUnits="userSpaceOnUse" x="0" y="0" width="186" height="208">
<path d="M93.2127 207.5C42.0177 207.5 0.594635 161.141 0.594635 104C0.594635 46.79 42.0792 0.5 93.2127 0.5C144.408 0.5 185.831 46.8587 185.831 104C185.892 161.21 144.408 207.5 93.2127 207.5Z" fill="#F7C0B5"/>
</mask>
<g mask="url(#mask0_17_1805)">
<path d="M152.375 191.153C151.878 191.498 151.31 191.843 150.813 192.188C150.245 192.533 149.748 192.878 149.18 193.154C148.683 193.43 148.257 193.706 147.76 193.982C147.689 194.051 147.618 194.051 147.547 194.12C145.914 195.086 144.21 195.983 142.506 196.811C142.009 197.087 141.441 197.363 140.944 197.57C140.944 197.57 140.873 197.639 140.802 197.639C140.234 197.915 139.666 198.191 139.098 198.467C137.962 199.019 136.755 199.502 135.619 199.985C135.051 200.261 134.412 200.468 133.844 200.675C133.276 200.882 132.637 201.158 132.069 201.365C131.501 201.572 130.862 201.848 130.294 202.055C130.294 202.055 130.294 202.055 130.223 202.055C129.655 202.262 129.016 202.469 128.448 202.676C127.17 203.09 125.821 203.504 124.543 203.918C124.117 204.056 123.62 204.194 123.194 204.332C121.845 204.746 120.496 205.091 119.147 205.367C118.65 205.505 118.153 205.574 117.585 205.712C116.307 205.988 114.958 206.264 113.68 206.54C113.396 206.609 113.183 206.609 112.899 206.678C112.473 206.747 111.976 206.816 111.55 206.885C110.911 206.954 110.343 207.092 109.704 207.161C109.42 207.23 109.136 207.23 108.852 207.299C108.497 207.368 108.071 207.437 107.645 207.437C106.509 207.575 105.302 207.713 104.166 207.851C103.811 207.92 103.385 207.92 103.03 207.989H102.959C102.462 208.058 101.965 208.058 101.468 208.127C100.971 208.196 100.474 208.196 99.9769 208.196C99.6929 208.196 99.3379 208.265 99.0539 208.265C98.4859 208.265 97.9889 208.334 97.4919 208.334C96.7819 208.334 96.1429 208.403 95.4329 208.403C94.7229 208.403 94.0839 208.403 93.3739 208.403C92.8769 208.403 92.3799 208.403 91.8829 208.403C61.992 207.989 35.012 195.638 15.8421 176.042C15.8421 176.042 15.8421 175.973 15.7711 175.973C17.9721 171.764 26.1371 164.174 34.657 157.895C45.449 149.96 60.714 145.061 60.714 145.061C60.714 145.061 70.725 143.474 107.858 150.995C136.187 156.791 148.257 180.32 152.375 191.153Z" fill="#AD827B"/>
<path d="M115.739 170.108C114.248 177.215 104.592 181.424 88.3329 175.076C68.382 167.21 60.714 145.061 60.714 145.061C59.649 129.191 57.164 115.598 57.164 115.598C80.239 113.666 107.503 139.886 107.503 139.886L110.627 152.858C110.911 153.962 111.479 154.928 112.331 155.618C113.822 158.102 116.733 165.554 115.739 170.108Z" fill="#AD827B"/>
<path d="M112.331 155.687C98.7699 154.997 88.7589 153.065 78.0379 134.366C87.1259 142.163 97.8469 145.13 109.136 146.51L110.627 152.858C110.911 154.031 111.479 154.997 112.331 155.687Z" fill="#8E5650"/>
<path d="M140.376 72.5416C141.654 78.3376 142.293 83.0296 138.814 98.4856C135.335 113.942 142.009 129.398 125.253 143.543C113.964 153.065 94.2259 154.859 78.4639 144.44C73.1389 140.921 68.24 136.022 64.264 129.605C61.14 124.568 57.519 119.807 53.472 115.46C47.863 109.526 41.118 97.5886 44.455 76.4746C49.851 42.1126 84.8539 38.1795 105.515 41.9746C126.176 45.7696 136.897 57.2236 140.376 72.5416Z" fill="#AD827B"/>
<path d="M72.4289 99.5206C72.4289 99.5206 70.2279 89.1706 59.8619 90.4126C50.916 91.5166 47.792 112.355 68.0979 118.151" fill="#AD827B"/>
<path d="M67.459 108.698C67.459 108.698 64.903 107.111 65.187 104.351C65.613 101.108 65.187 99.1066 63.625 98.4856C59.72 96.8986 58.939 101.315 59.081 101.867" stroke="#423232" stroke-width="2.07363" stroke-miterlimit="10" stroke-linecap="round" stroke-linejoin="round"/>
<path d="M121.632 115.391C121.632 115.391 124.33 115.529 126.886 112.562C128.306 110.906 129.513 108.836 128.732 108.215C127.951 107.525 115.1 109.457 114.248 111.113C113.396 112.769 118.366 115.391 121.632 115.391Z" fill="#8E605C"/>
<path d="M123.762 92.2066C123.762 92.2066 123.904 98.7616 128.235 106.076C130.152 109.319 127.241 114.632 120.922 115.529" stroke="#423232" stroke-width="2.07363" stroke-miterlimit="10" stroke-linecap="round" stroke-linejoin="round"/>
<path d="M67.4237 151.412C67.4237 151.412 66.0037 142.856 63.5897 143.339C52.3717 145.823 19.6408 155.069 8.20983 179.081C-2.58214 201.92 -3.57614 233.936 -3.57614 233.936H175.982C175.982 233.936 172.716 185.291 154.399 170.387C143.536 161.486 133.738 156.035 125.715 152.723C115.065 148.307 104.344 157.553 101.291 157.346C95.8237 157.07 67.4237 151.412 67.4237 151.412Z" fill="#544D4D"/>
<path d="M31.5688 233.936L28.3738 208.337" stroke="white" stroke-width="2.07363" stroke-miterlimit="10" stroke-linecap="round" stroke-linejoin="round"/>
<path d="M155.535 199.643C155.535 199.643 153.404 204.68 154.043 209.717C154.682 214.754 156.528 222.137 153.901 233.936" stroke="white" stroke-width="2.07363" stroke-miterlimit="10" stroke-linecap="round" stroke-linejoin="round"/>
<path d="M59.2587 136.37C59.2587 136.37 54.1467 138.164 53.2237 139.13C52.3007 140.096 51.8747 140.717 51.8747 140.717C51.8747 140.717 49.3187 143.477 47.8987 150.17C47.2597 152.999 48.7507 157.622 47.6147 161.279C44.3487 171.422 59.8267 187.016 85.3866 196.193C104.77 203.162 126.141 196.814 129.123 183.704C131.963 171.077 130.259 165.35 128.91 161.279C126.212 153.413 125.36 151.205 121.739 148.169C119.467 146.237 117.905 150.239 109.385 152.516C106.758 153.206 103.563 153.758 99.4446 153.896C74.9497 154.793 64.5837 141.269 60.8917 137.405C59.9687 136.646 59.5427 136.232 59.2587 136.37Z" fill="white"/>
<path d="M109.172 152.447C106.545 153.137 103.35 153.689 99.2316 153.827C74.7367 154.724 64.3707 141.2 60.6787 137.336" stroke="#CCCCCC" stroke-width="2.07363" stroke-miterlimit="10" stroke-linecap="round" stroke-linejoin="round"/>
<path d="M122.165 145.685C128.626 150.929 139.844 164.66 137.146 195.365C135.797 210.545 143.394 216.824 141.69 219.239C141.406 219.653 141.051 219.86 140.767 219.929C139.56 220.205 138.424 220.757 137.856 221.861C137.643 222.344 137.288 222.689 136.791 222.965C136.365 223.241 135.868 223.241 135.442 223.172C133.951 222.827 132.318 223.655 131.395 224.897C131.04 225.38 130.614 225.725 129.975 225.863C129.549 226.001 129.123 225.932 128.839 225.863C127.632 225.518 126.283 225.863 125.218 226.691C124.934 226.898 124.65 227.036 124.295 227.036C123.656 227.036 123.159 226.76 122.733 226.346C121.739 225.449 120.319 225.104 118.899 225.587C118.757 225.656 118.686 225.656 118.544 225.656C117.55 225.794 116.769 225.035 116.201 223.724C115.633 222.482 114.284 221.93 112.864 222.068C112.58 222.068 112.296 222.068 111.941 221.999C109.172 221.378 105.622 217.652 105.551 213.098C105.48 208.613 106.545 200.816 108.32 197.159C113.787 185.912 115.775 177.839 116.059 171.767C116.627 160.658 109.385 150.722 110.095 150.515C117.337 149.066 122.165 145.685 122.165 145.685Z" fill="white"/>
<path d="M108.249 197.159C113.716 185.912 115.704 177.839 115.988 171.767C116.414 163.211 112.154 155.276 110.592 152.033" stroke="#CCCCCC" stroke-width="2.07363" stroke-miterlimit="10" stroke-linecap="round" stroke-linejoin="round"/>
<path d="M105.48 213.098C105.409 208.613 106.474 200.816 108.249 197.159C113.716 185.912 115.704 177.839 115.988 171.767" stroke="#CCCCCC" stroke-width="2.07363" stroke-miterlimit="10" stroke-linecap="round" stroke-linejoin="round"/>
<path d="M111.799 189.017C111.799 189.017 90.2147 191.087 76.0148 180.668" stroke="#CCCCCC" stroke-width="2.07363" stroke-miterlimit="10" stroke-linecap="round" stroke-linejoin="round"/>
<path d="M117.621 152.654C119.609 155.483 121.881 159.623 122.449 164.729" stroke="#CCCCCC" stroke-width="2.07363" stroke-miterlimit="10" stroke-linecap="round" stroke-linejoin="round"/>
<path d="M126.638 225.863C126.638 225.863 123.017 218.411 126.638 202.196C130.472 184.946 128.697 176.459 128.697 176.459" stroke="#CCCCCC" stroke-width="2.07363" stroke-miterlimit="10" stroke-linecap="round" stroke-linejoin="round"/>
<path d="M47.7568 153.62C47.7568 153.62 52.5138 163.142 58.2648 167.558" stroke="#CCCCCC" stroke-width="2.07363" stroke-miterlimit="10" stroke-linecap="round" stroke-linejoin="round"/>
<path d="M115.42 176.459C115.42 176.459 101.93 177.356 92.4158 173.768" stroke="#CCCCCC" stroke-width="2.07363" stroke-miterlimit="10" stroke-linecap="round" stroke-linejoin="round"/>
<path d="M98.1545 99.1343C96.4505 99.0653 95.1725 97.6853 95.3145 96.0293L95.3855 94.0973C95.4565 92.4413 96.8765 91.1993 98.5805 91.3373C100.285 91.4063 101.563 92.7863 101.421 94.4423L101.35 96.3743C101.279 97.9613 99.8585 99.2033 98.1545 99.1343Z" fill="#423232"/>
<path d="M128.045 100.169C126.483 100.1 125.276 98.7892 125.347 97.2712L125.418 95.4772C125.489 93.9592 126.838 92.7862 128.4 92.8552C129.962 92.9242 131.169 94.2352 131.098 95.7532L131.027 97.5472C130.956 99.0652 129.607 100.238 128.045 100.169Z" fill="#423232"/>
<path d="M105.042 95.1322C105.042 95.1322 103.196 92.5792 100.001 92.0962C97.3736 91.6822 94.4626 92.9242 94.0366 94.3732" stroke="#423232" stroke-width="2.07363" stroke-miterlimit="10" stroke-linecap="round" stroke-linejoin="round"/>
<path d="M125.987 95.7533C125.987 95.7533 125.987 93.5453 129.253 93.5453C131.951 93.5453 133.087 95.9603 133.087 95.9603" stroke="#423232" stroke-width="2.07363" stroke-miterlimit="10" stroke-linecap="round" stroke-linejoin="round"/>
<path d="M107.952 84.0231C109.443 84.5061 110.934 83.1951 110.65 81.6081C110.508 80.7801 110.153 79.9521 109.443 79.3311C107.313 77.4681 98.5094 75.8121 93.1844 78.2271C88.4984 80.4351 101.136 81.8151 107.952 84.0231Z" fill="#423232"/>
<path d="M129.181 85.1272C127.974 85.5412 126.696 84.2992 126.909 82.8502C126.98 82.0912 127.264 81.3322 127.832 80.7802C129.536 79.1242 135.358 77.8132 139.05 80.3662C142.245 82.5052 134.719 83.1262 129.181 85.1272Z" fill="#423232"/>
<path d="M116.685 123.41C116.754 124.516 115.924 126.451 114.404 127.834C106.593 123.064 103.068 125.553 103.068 125.553C100.303 121.336 100.925 115.599 107.63 119.954C112.33 122.926 115.164 123.41 116.685 123.41Z" fill="#423232"/>
<path d="M114.404 127.834C112.745 129.285 110.256 130.184 106.87 128.801C105.28 128.179 104.036 126.935 103.068 125.553C103.068 125.553 106.593 123.064 114.404 127.834Z" fill="#FE9DAB"/>
<path d="M117.998 123.133C117.998 123.133 115.095 124.723 107.63 119.954C98.7133 114.217 100.51 126.244 106.8 128.801C113.367 131.497 116.754 125.622 116.685 123.41" stroke="#423232" stroke-width="2.07363" stroke-miterlimit="10" stroke-linecap="round" stroke-linejoin="round"/>
<path d="M103.068 125.553C103.068 125.553 106.593 123.064 114.404 127.834" stroke="#423232" stroke-width="2.07363" stroke-miterlimit="10" stroke-linecap="round" stroke-linejoin="round"/>
<path d="M141.154 76.6394C141.012 75.8114 140.799 74.9834 140.657 74.0864C139.876 70.7054 138.74 67.5314 137.249 64.5644L128.871 67.9454C126.457 68.9114 123.759 69.1874 121.132 68.7734L87.9037 63.1844C83.8567 62.4944 79.9518 64.7714 78.6028 68.4974C77.6088 71.1884 76.4018 74.2934 75.1238 76.9154C65.0418 78.5024 55.2438 76.4324 45.9428 72.5684C45.2328 72.2924 44.5938 72.0164 43.8838 71.6714C45.1618 65.3924 40.2628 39.1724 46.3688 32.3414C48.4278 30.0643 50.4868 29.7883 52.4748 30.4783C57.0898 32.0653 62.2728 31.1683 65.6098 27.7183C68.3078 25.0273 71.7158 22.6813 75.9048 22.6123C77.9638 22.5433 79.5968 22.9573 80.9458 23.7163C85.2058 25.9933 90.3887 25.2343 94.2227 22.4053C95.4297 21.5773 96.7077 21.0253 98.1277 21.0253C100.187 21.0253 102.033 21.8533 103.524 22.9573C106.364 25.0273 110.127 25.5103 113.606 24.8203C113.819 24.7513 114.032 24.7513 114.245 24.7513C115.097 24.7513 116.02 24.9583 116.801 25.3033C119.783 26.5453 123.12 26.6833 126.102 25.4413C127.522 24.8893 129.226 24.8893 130.93 26.4763C133.06 28.4773 135.829 29.7883 138.811 29.8573C139.592 29.8573 140.586 30.2023 141.793 30.9613C142.361 31.3753 142.858 32.1343 143.213 33.1694C143.781 34.7564 145.13 35.9294 146.834 36.4124C147.899 36.7574 148.68 37.7924 148.893 40.1384C149.603 47.5904 142.929 70.6364 141.154 76.6394Z" fill="#423232"/>
<path d="M146.692 36.3434C143.568 37.4474 143 36.8264 139.45 35.9294C135.9 35.0324 132.776 38.8964 130.22 34.8944C126.528 29.0293 119.712 33.0313 118.363 31.9273C117.014 30.8233 112.825 27.1663 106.932 31.0303C103.027 33.5834 98.0568 29.0293 91.8088 29.0293C79.3128 29.0293 77.0408 37.9304 72.7098 33.8594C68.3789 29.8573 63.7639 32.5483 57.3739 33.6523C50.9839 34.7564 47.7179 31.0303 47.7179 31.0303C49.2799 29.9953 50.8419 29.9953 52.3329 30.4783C56.9479 32.0653 62.1309 31.1683 65.4679 27.7183C68.1659 25.0273 71.5738 22.6813 75.7628 22.6123C77.8218 22.5433 79.4548 22.9573 80.8038 23.7163C85.0638 25.9933 90.2468 25.2343 94.0808 22.4053C95.2878 21.5773 96.5658 21.0253 97.9858 21.0253C100.045 21.0253 101.891 21.8533 103.382 22.9573C106.222 25.0273 109.985 25.5103 113.464 24.8203C113.677 24.7513 113.89 24.7513 114.103 24.7513C114.955 24.7513 115.878 24.9583 116.659 25.3033C119.641 26.5453 122.978 26.6833 125.96 25.4413C127.38 24.8893 129.084 24.8893 130.788 26.4763C132.918 28.4773 135.687 29.7883 138.669 29.8573C139.45 29.8573 140.444 30.2023 141.651 30.9613C142.219 31.3753 142.716 32.1343 143.071 33.1694C143.639 34.6874 145.059 35.8604 146.692 36.3434Z" fill="#5E4949"/>
<path d="M72.1418 99.2714C70.9348 96.3734 67.7398 91.0604 60.2139 92.0264C52.6879 92.9234 49.2799 107.758 60.3559 115.9C63.5509 118.177 66.8878 119.281 66.8878 119.281L58.2969 122.179C58.2969 122.179 42.6769 113.554 42.1089 93.8204C41.8249 84.6434 42.8189 77.1914 43.8839 71.7404C53.7529 76.1564 64.2608 78.7094 75.1238 76.9844C73.9168 79.3994 72.5678 81.4004 71.2898 82.3664C67.3848 85.1264 72.6388 92.5094 72.1418 99.2714Z" fill="#99807F"/>
<path d="M72.2838 81.4004C71.9288 81.7454 71.6448 82.0904 71.2898 82.2974C70.4378 82.9184 70.0118 83.8154 69.8698 84.8504C65.4678 85.0574 59.1488 83.2634 56.9478 82.5734C56.4508 82.4354 56.1668 82.0214 56.1668 81.5384V81.1934C56.1668 80.4344 56.8768 79.9514 57.5868 80.0894C62.4858 81.4004 71.9288 81.4004 72.2838 81.4004Z" fill="#423232"/>
<path d="M70.7928 90.6465C66.8879 90.3705 63.1249 89.6805 61.4209 89.3355C60.8529 89.1975 60.4979 88.7835 60.4979 88.2315C60.4979 87.5415 61.1369 87.0585 61.8469 87.1275C65.0419 87.6105 68.4498 87.5415 70.0828 87.4725C70.2248 88.4385 70.5088 89.4735 70.7928 90.6465Z" fill="#423232"/>
<path d="M64.2738 101.791C64.2738 101.791 58.5938 100.963 59.0198 108.691C59.2328 112.624 59.2328 114.763 59.1618 115.867C59.0908 116.626 59.5878 117.316 60.2978 117.592C61.1498 117.937 62.0728 117.592 62.4988 116.764C63.1378 115.66 63.8478 114.142 63.8478 112.9C63.8478 110.83 66.1198 108.967 66.1198 108.967C66.1198 108.967 64.0608 107.242 64.2738 101.791Z" fill="white"/>
<path d="M81.4557 234.824C80.8877 234.203 58.5937 197.15 61.9307 183.212C64.2027 173.621 61.2207 162.581 58.5937 152.852C57.5287 148.85 56.5347 145.124 55.9667 141.812C54.9727 136.084 55.6827 130.633 58.0967 125.596C60.7237 119.938 60.2977 115.039 60.2977 114.97L61.7177 114.832C61.7177 115.039 62.1437 120.214 59.3747 126.148C57.1027 130.909 56.4637 136.154 57.3867 141.605C57.9547 144.848 58.9487 148.574 60.0137 152.576C62.7117 162.443 65.6937 173.69 63.3507 183.626C60.2267 196.874 82.4497 233.927 82.5917 234.065L81.4557 234.824Z" fill="white"/>
<path d="M59.2328 112.693C59.3038 114.211 59.2328 115.246 59.2328 115.867C59.1618 116.626 59.6588 117.316 60.3688 117.592C61.2208 117.937 62.1438 117.592 62.5698 116.764C63.2088 115.66 63.9188 114.142 63.9188 112.9C63.9188 112.831 63.9188 112.693 63.9188 112.624C62.4278 113.176 60.7238 113.59 59.2328 112.693Z" fill="#E5E5E5"/>
<path d="M126.044 158.579C125.547 161.753 125.476 166.79 125.334 172.655C125.121 183.971 118.234 228.062 114.897 235.031L113.619 234.479C116.814 227.717 123.701 183.833 123.914 172.655C124.056 166.79 124.127 161.684 124.624 158.372C125.689 151.403 124.908 146.159 124.482 143.951C124.695 143.744 124.908 143.606 125.121 143.399C125.334 143.261 125.476 143.054 125.689 142.916C126.115 144.71 127.322 150.437 126.044 158.579Z" fill="white"/>
</g>
</svg>
