<svg width="15" height="15" viewBox="0 0 15 15" fill="none" xmlns="http://www.w3.org/2000/svg">
<circle cx="7.03888" cy="7.3656" r="7" fill="#820AD1"/>
<path d="M3.6605 5.0647C2.6769 5.0647 1.87915 5.86383 1.87915 6.84913V10.0366H3.24575V6.31032C3.24575 5.82675 3.43764 5.38783 3.74964 5.06697C3.72018 5.06545 3.69071 5.0647 3.6605 5.0647Z" fill="white"/>
<path d="M5.02789 4.52588C4.52703 4.52588 4.07376 4.73323 3.75043 5.06696C4.69247 5.11388 5.44263 5.8941 5.44263 6.84912V10.0366H6.80923V6.31031C6.80923 5.32501 6.01148 4.52588 5.02789 4.52588Z" fill="white"/>
<path d="M10.4173 9.66653C11.4009 9.66653 12.1986 8.8674 12.1986 7.8821V4.69464H10.832V8.42091C10.832 8.90448 10.6401 9.3434 10.3281 9.66426C10.3576 9.66578 10.387 9.66653 10.4173 9.66653Z" fill="white"/>
<path d="M9.0499 10.2053C9.55076 10.2053 10.004 9.99799 10.3274 9.66426C9.38532 9.61734 8.63516 8.83713 8.63516 7.8821V4.69464H7.26855V8.42091C7.26855 9.40621 8.06631 10.2053 9.0499 10.2053Z" fill="white"/>
</svg>
