<svg width="15" height="15" viewBox="0 0 15 15" fill="none" xmlns="http://www.w3.org/2000/svg">
<circle cx="7.83569" cy="7.3656" r="7" fill="#CC0830"/>
<path d="M9.33934 8.46785C9.38915 8.42257 9.43896 8.36824 9.49782 8.32749C9.74686 8.14184 9.95967 7.9245 10.1181 7.65735C10.3853 7.20003 10.3491 6.7246 10.0095 6.31709C9.74233 6.00013 9.40274 5.78279 9.03597 5.59715C8.27075 5.21227 7.4512 5.05832 6.60447 5.04927C6.27846 5.04474 5.95245 5.06738 5.63097 5.07643C5.40457 5.41603 5.2959 5.77826 5.24157 6.15861C5.13742 6.89666 5.30496 7.58944 5.64908 8.24146C5.67625 8.29126 5.71247 8.33654 5.72605 8.39088C5.73511 8.4271 5.72605 8.48597 5.70341 8.50408C5.67625 8.52219 5.61286 8.52219 5.58569 8.50408C5.4906 8.42257 5.40004 8.33654 5.31854 8.24146C4.61218 7.38568 4.39484 6.4167 4.66199 5.34358C4.66652 5.32547 4.67105 5.30736 4.6801 5.26208C4.53521 5.2983 4.4039 5.32547 4.27712 5.36169C4.15033 5.39792 4.02808 5.4432 3.9013 5.47942C3.84243 5.49753 3.78357 5.49753 3.72924 5.50659C3.65679 5.38433 3.72924 5.33905 3.80621 5.30283C4.03714 5.19416 4.27259 5.08549 4.50804 4.98587C4.62124 4.93607 4.73897 4.89984 4.85669 4.85456C5.08309 4.41535 5.39552 4.0667 5.80756 3.80861C6.14262 3.60033 6.50939 3.47355 6.89426 3.41468C7.60967 3.30148 8.30698 3.37846 8.959 3.70447C9.29859 3.87653 9.59291 4.10293 9.83289 4.40177C9.89628 4.47875 9.91439 4.54214 9.78761 4.60553C9.09031 4.0169 8.27075 3.83125 7.37422 3.97615C6.88973 4.05312 6.35544 4.29763 6.1064 4.57383C6.19696 4.5693 6.26941 4.56025 6.34185 4.55572C7.49648 4.47422 8.61488 4.62364 9.66988 5.12171C9.97778 5.26661 10.2585 5.45225 10.5121 5.68318C10.7656 5.91863 10.9603 6.1903 11.0418 6.5299C11.146 6.96911 11.0283 7.36304 10.7611 7.71169C10.4487 8.12373 10.0276 8.38635 9.55216 8.56747C9.4616 8.58558 9.38915 8.59011 9.33934 8.46785Z" fill="white"/>
<path d="M8.5107 11.2072C8.27072 11.2208 8.02622 11.2344 7.78624 11.2435C7.73643 11.248 7.68662 11.2435 7.62323 11.2435C7.62323 9.93035 7.62323 8.62631 7.62323 7.29962C7.91302 7.29962 8.21186 7.29962 8.5107 7.29962C8.5107 8.19615 8.51523 9.09268 8.51523 9.98469C8.51523 10.3922 8.51523 10.7997 8.5107 11.2072Z" fill="white"/>
<path d="M7.09347 11.1982C6.91688 11.2163 6.75388 11.2344 6.59087 11.2525C6.54559 11.0941 6.52748 8.87989 6.5637 8.36371C6.73576 8.36371 6.90783 8.36371 7.09347 8.36371C7.09347 9.30552 7.09347 10.2428 7.09347 11.1982Z" fill="white"/>
</svg>
