<svg width="21" height="21" viewBox="0 0 21 21" fill="none" xmlns="http://www.w3.org/2000/svg">
<path d="M10.8357 11.199C11.296 11.199 11.669 10.8259 11.669 10.3656C11.669 9.90538 11.296 9.53229 10.8357 9.53229C10.3755 9.53229 10.0024 9.90538 10.0024 10.3656C10.0024 10.8259 10.3755 11.199 10.8357 11.199Z" stroke="#009AA6" stroke-width="1.66667" stroke-linecap="round" stroke-linejoin="round"/>
<path d="M16.669 11.199C17.1293 11.199 17.5024 10.8259 17.5024 10.3656C17.5024 9.90538 17.1293 9.53229 16.669 9.53229C16.2088 9.53229 15.8357 9.90538 15.8357 10.3656C15.8357 10.8259 16.2088 11.199 16.669 11.199Z" stroke="#009AA6" stroke-width="1.66667" stroke-linecap="round" stroke-linejoin="round"/>
<path d="M5.00234 11.199C5.46258 11.199 5.83567 10.8259 5.83567 10.3656C5.83567 9.90538 5.46258 9.53229 5.00234 9.53229C4.5421 9.53229 4.16901 9.90538 4.16901 10.3656C4.16901 10.8259 4.5421 11.199 5.00234 11.199Z" stroke="#009AA6" stroke-width="1.66667" stroke-linecap="round" stroke-linejoin="round"/>
</svg>
